<svg xmlns="http://www.w3.org/2000/svg" viewBox="0 0 33.27 30"><title>nav-save</title><path d="M26.74,20.41V19.34a5.45,5.45,0,0,0,0-10.9,5.62,5.62,0,0,0-.65,0l-.47.06-.11-.46a9.13,9.13,0,0,0-17.76,0l-.11.46-.47-.06a5.45,5.45,0,1,0-.64,10.86v1.07a6.52,6.52,0,1,1,0-13h.3a10.21,10.21,0,0,1,19.61,0h.31a6.52,6.52,0,0,1,0,13ZM16.63,3.93V2.86A7.32,7.32,0,0,0,9.49,8.49l1,.25A6.25,6.25,0,0,1,16.63,3.93Zm-2.39,8.3H9.48v1.07h4.77ZM25,29.49a1.75,1.75,0,0,0,.5-1.22V14.93l-2.7-2.7H21.41v1.07h1l2.07,2.07v12.9a.66.66,0,0,1-.18.46.67.67,0,0,1-.47.2H9.48a.65.65,0,0,1-.65-.65V14A.65.65,0,0,1,9,13.5a.63.63,0,0,1,.45-.19V12.23a1.68,1.68,0,0,0-1.22.51A1.72,1.72,0,0,0,7.75,14V28.27A1.72,1.72,0,0,0,9.48,30H23.79A1.76,1.76,0,0,0,25,29.49Zm-3.08-7.72H11.33V30H21.94ZM12.4,22.84h8.47v6.08H12.4Zm-1.79,3.7H9.54v1.07h1.07Zm13.12,0H22.66v1.07h1.07Zm-4.11-2.38h-6v1.07h6Zm0,2.38h-6v1.07h6Zm2-8.8a1.14,1.14,0,0,0,.33-.8V11H13.71v7h7.1A1.15,1.15,0,0,0,21.61,17.75Zm-6.83-5.63h6.09v4.83a.07.07,0,0,1,0,0l0,0h-6ZM14.25,17H12.46l0,0a.07.07,0,0,1,0,0V12.77H11.33v4.17a1.14,1.14,0,0,0,1.14,1.14h1.78Zm5.3-3.64H18.48v2.38h1.07Z" fill="#0460a9"/></svg>