<svg xmlns="http://www.w3.org/2000/svg" viewBox="0 0 25.66 30"><title>nav-submit-plan</title><path d="M3.92,15H3a9.88,9.88,0,0,1,9.86-9.86h.48v1.8l2.8-2.8-2.8-2.8v1.8h-.48A11.89,11.89,0,0,0,1,15H0A12.84,12.84,0,0,1,12.35,2.18V.69A.69.69,0,0,1,13.53.2l3.93,3.93L13.53,8.06a.69.69,0,0,1-1.17-.49V6.1A8.92,8.92,0,0,0,3.92,15Zm9,14.95a.69.69,0,0,0,.42-.64V27.82A12.84,12.84,0,0,0,25.66,15h-1A11.89,11.89,0,0,1,12.83,26.88h-.48v1.8l-2.8-2.8,2.8-2.8v1.8h.48A9.88,9.88,0,0,0,22.69,15h-1a8.92,8.92,0,0,1-8.43,8.9V22.43a.69.69,0,0,0-1.17-.49L8.2,25.87l3.93,3.93a.69.69,0,0,0,.75.15ZM18.28,15a5.45,5.45,0,1,0-5.45,5.45A5.46,5.46,0,0,0,18.28,15Zm-1,0a4.5,4.5,0,1,1-4.5-4.5A4.5,4.5,0,0,1,17.33,15ZM15.4,14l-.67-.67L12.32,15.7l-1.38-1.38-.67.67L12.32,17ZM7.51,23.87c-.29-.17-.57-.36-.84-.56L6,24.16c.3.22.61.43.93.62ZM5.89,22.66c-.25-.23-.49-.47-.72-.72l-.78.71c.25.28.52.54.79.79Zm-1.36-1.5c-.2-.27-.39-.55-.56-.84l-.91.55c.19.32.4.63.62.93Zm-1-1.74c-.14-.3-.28-.62-.39-.94l-1,.36c.13.35.27.7.43,1ZM2.8,17.52c-.08-.33-.15-.66-.2-1l-1,.15c.05.37.13.74.22,1.1Zm21.31-4.19c-.05-.37-.13-.74-.22-1.1l-1,.26c.08.33.15.66.2,1Zm-.54-2.17c-.13-.35-.27-.7-.43-1l-1,.45c.14.3.27.62.39.94Zm-1-2c-.19-.32-.4-.63-.62-.93l-.85.63c.2.27.39.55.56.84ZM21.27,7.34c-.25-.27-.52-.54-.79-.79l-.71.78c.25.23.49.47.72.72Zm-1.66-1.5c-.3-.22-.61-.43-.93-.62l-.55.91c.29.17.57.36.84.56Z" fill="#0460a9"/></svg>