<svg xmlns="http://www.w3.org/2000/svg" viewBox="0 0 30 30"><title>nav-view-changes</title><path d="M15,27.59A12.59,12.59,0,1,1,27.59,15,12.61,12.61,0,0,1,15,27.59ZM15,3.45A11.55,11.55,0,1,0,26.55,15,11.56,11.56,0,0,0,15,3.45ZM1.12,13.5l-1-.11c0-.35.09-.71.15-1.06l1,.18C1.2,12.84,1.16,13.17,1.12,13.5Zm.35-2-1-.26c.09-.34.19-.69.3-1l1,.33C1.65,10.9,1.55,11.22,1.47,11.54ZM2.1,9.66l-1-.4c.14-.33.29-.66.45-1l.93.47C2.37,9,2.23,9.35,2.1,9.66ZM3,7.88l-.9-.53c.18-.3.38-.61.58-.9l.86.6C3.34,7.31,3.16,7.59,3,7.88ZM4.13,6.24l-.81-.65c.22-.28.46-.55.7-.81l.76.71C4.56,5.73,4.34,6,4.13,6.24ZM5.49,4.79,4.78,4c.26-.24.53-.48.81-.7l.66.81C6,4.34,5.73,4.56,5.49,4.79ZM7,3.54l-.6-.86c.29-.2.59-.4.9-.58l.53.9C7.59,3.17,7.31,3.35,7,3.54Zm1.71-1-.47-.93c.32-.16.64-.31,1-.45l.4,1C9.35,2.23,9,2.37,8.75,2.52Zm1.84-.76-.33-1c.34-.11.68-.21,1-.3l.26,1C11.22,1.56,10.89,1.65,10.58,1.76Zm1.93-.49-.18-1c.35-.06.71-.11,1.06-.15l.11,1C13.17,1.16,12.83,1.21,12.51,1.26Zm3-1.26h-1V1h1ZM1,14.48H0v1H1ZM16.62,29.91l-.11-1c.33,0,.66-.08,1-.14l.18,1C17.33,29.83,17,29.88,16.62,29.91Zm2.1-.38-.26-1c.32-.08.64-.18,1-.28l.33,1C19.41,29.35,19.07,29.45,18.72,29.53Zm2-.68-.4-1c.3-.13.61-.27.9-.41l.47.93C21.41,28.57,21.08,28.72,20.75,28.86Zm1.91-1-.53-.9c.28-.17.57-.35.84-.54l.6.86C23.27,27.52,23,27.72,22.66,27.9Zm1.75-1.22-.66-.81c.26-.21.51-.43.75-.65l.71.76C25,26.22,24.69,26.45,24.42,26.68ZM26,25.22l-.76-.71c.22-.24.44-.49.65-.75l.81.65C26.46,24.69,26.22,25,26,25.22Zm1.34-1.66-.86-.6c.19-.27.37-.55.54-.84l.9.53C27.72,23,27.53,23.26,27.32,23.56Zm1.09-1.84-.93-.47c.15-.3.29-.6.41-.91l1,.4C28.73,21.07,28.58,21.4,28.42,21.72Zm.82-2-1-.33c.1-.31.2-.64.28-1l1,.26C29.45,19.06,29.35,19.4,29.24,19.74Zm.53-2.07-1-.18c.06-.33.11-.66.14-1l1,.11C29.88,17,29.83,17.32,29.76,17.67ZM30,14.48H29v1h1ZM15.52,29h-1v1h1ZM15,21.1A11.71,11.71,0,0,1,4.89,15.26L4.74,15l.15-.26a11.67,11.67,0,0,1,20.21,0l.15.26-.15.26A11.72,11.72,0,0,1,15,21.1ZM6,15A10.63,10.63,0,0,0,24,15,10.63,10.63,0,0,0,6,15Zm9,4.51A4.5,4.5,0,1,1,19.5,15,4.51,4.51,0,0,1,15,19.5Zm0-8A3.46,3.46,0,1,0,18.46,15,3.47,3.47,0,0,0,15,11.54Zm0,5A1.56,1.56,0,1,1,16.56,15,1.57,1.57,0,0,1,15,16.56Zm0-2.08a.52.52,0,1,0,.52.52A.52.52,0,0,0,15,14.48Z" fill="#0460a9"/></svg>