<svg xmlns="http://www.w3.org/2000/svg" viewBox="0 0 234.64 50"><title>Zasób 13</title><path d="M87.84,34.16a11.33,11.33,0,0,0,2.78,1.45l-1.28,2.45a7.91,7.91,0,0,1-1.54-.64q-.16-.08-2.31-1.52a9.23,9.23,0,0,1-3.74.74,8.21,8.21,0,0,1-6.21-2.33,9.06,9.06,0,0,1-2.24-6.55,9.05,9.05,0,0,1,2.25-6.54,8.08,8.08,0,0,1,6.11-2.34,8,8,0,0,1,6.06,2.34A9.08,9.08,0,0,1,90,27.75a11.31,11.31,0,0,1-.62,3.91A8.14,8.14,0,0,1,87.84,34.16ZM85,32.2a5.19,5.19,0,0,0,1-1.9,8.9,8.9,0,0,0,.33-2.55,6.51,6.51,0,0,0-1.31-4.45,4.74,4.74,0,0,0-6.87,0,6.49,6.49,0,0,0-1.32,4.44,6.65,6.65,0,0,0,1.32,4.51,4.25,4.25,0,0,0,3.33,1.49A4.07,4.07,0,0,0,83,33.5a10,10,0,0,0-2.14-1.08l1-2A11.78,11.78,0,0,1,85,32.2Z" fill="#fff"/><path d="M92.65,19.16h3.47v9.3a19.3,19.3,0,0,0,.13,2.87A2.78,2.78,0,0,0,97.31,33a3.69,3.69,0,0,0,2.29.64,3.5,3.5,0,0,0,2.23-.6,2.38,2.38,0,0,0,.9-1.48,19.33,19.33,0,0,0,.15-2.92v-9.5h3.47v9a23.19,23.19,0,0,1-.28,4.37,4.84,4.84,0,0,1-1,2.16,5.24,5.24,0,0,1-2,1.4,8.79,8.79,0,0,1-3.3.52A9.51,9.51,0,0,1,96,36.06a5.34,5.34,0,0,1-2-1.48,4.73,4.73,0,0,1-1-1.9,20.86,20.86,0,0,1-.34-4.36Z" fill="#fff"/><path d="M125.5,36.34h-3.77l-1.5-3.9h-6.87l-1.42,3.9h-3.68L115,19.16h3.67Zm-6.39-6.8-2.37-6.37-2.32,6.38Z" fill="#fff"/><path d="M127.43,36.34v-17h3.47V33.44h8.63v2.89Z" fill="#fff"/><path d="M141.9,36.34V19.16h3.47V36.34Z" fill="#fff"/><path d="M152.54,36.34V22.07h-5.1V19.16h13.65v2.91H156V36.34Z" fill="#fff"/><path d="M167.84,36.34V29.11l-6.29-9.95h4.07l4,6.8,4-6.8h4l-6.32,10v7.21Z" fill="#fff"/><path d="M185.58,36.34V19.16h3.47v6.76h6.8V19.16h3.47V36.34h-3.47V28.83h-6.8v7.51Z" fill="#fff"/><path d="M202.88,19.16h3.47v9.3a19.3,19.3,0,0,0,.13,2.87A2.78,2.78,0,0,0,207.54,33a3.69,3.69,0,0,0,2.29.64,3.5,3.5,0,0,0,2.23-.6,2.38,2.38,0,0,0,.9-1.48,19.33,19.33,0,0,0,.15-2.92v-9.5h3.47v9a23.19,23.19,0,0,1-.28,4.37,4.84,4.84,0,0,1-1,2.16,5.24,5.24,0,0,1-2,1.4,8.79,8.79,0,0,1-3.3.52,9.51,9.51,0,0,1-3.73-.57,5.34,5.34,0,0,1-2-1.48,4.73,4.73,0,0,1-1-1.9,20.86,20.86,0,0,1-.34-4.36Z" fill="#fff"/><path d="M220.25,19.16h6.87a19.84,19.84,0,0,1,3,.17,4.47,4.47,0,0,1,1.79.71,4.41,4.41,0,0,1,1.32,1.44,3.89,3.89,0,0,1,.53,2,4.07,4.07,0,0,1-2.41,3.73,4.52,4.52,0,0,1,2.41,1.56,4.14,4.14,0,0,1,.84,2.59,5.11,5.11,0,0,1-.54,2.28,4.59,4.59,0,0,1-1.49,1.77,4.92,4.92,0,0,1-2.33.81q-.87.09-4.18.12h-5.85ZM223.72,22v4H226q2,0,2.52-.06a2.29,2.29,0,0,0,1.4-.62,1.81,1.81,0,0,0,.51-1.34,1.88,1.88,0,0,0-.44-1.29,2,2,0,0,0-1.31-.6q-.52-.06-3-.06Zm0,6.83v4.59h3.21a15.69,15.69,0,0,0,2.38-.11,2.15,2.15,0,0,0,1.26-.69,2.11,2.11,0,0,0,.49-1.46,2.24,2.24,0,0,0-.37-1.31,2.12,2.12,0,0,0-1.08-.79,11.78,11.78,0,0,0-3.08-.25Z" fill="#fff"/><path d="M16.67,25c0,4.16,4.16,8.32,8.32,8.33h0a8.36,8.36,0,0,1,8.33,8.33h0A8.36,8.36,0,0,1,25,50h0a8.36,8.36,0,0,1-8.33-8.33h0c0-4.17-4.17-8.33-8.33-8.33h0A8.36,8.36,0,0,1,0,25H0a8.36,8.36,0,0,1,8.33-8.33h0c4.16,0,8.31-4.17,8.31-8.33h0A8.36,8.36,0,0,1,25,0h0a8.36,8.36,0,0,1,8.33,8.33h0A8.36,8.36,0,0,1,25,16.67h0c-4.16,0-8.33,4.16-8.33,8.33Z" fill="#fff" fill-rule="evenodd"/><path d="M41.67,16.67A8.36,8.36,0,0,0,33.33,25h0a8.36,8.36,0,0,0,8.33,8.33h0A8.36,8.36,0,0,0,50,25h0a8.36,8.36,0,0,0-8.33-8.33Z" fill="#f39638" fill-rule="evenodd"/></svg>