<svg xmlns="http://www.w3.org/2000/svg" viewBox="0 0 27.8 30"><title>cat-role-management</title><rect y="29.05" width="27.32" height="0.95" fill="#0460a9"/><path d="M21.93,6.55A3.27,3.27,0,1,1,25.2,3.27,3.28,3.28,0,0,1,21.93,6.55Zm0-5.59a2.32,2.32,0,1,0,2.32,2.32A2.32,2.32,0,0,0,21.93,1Z" fill="#0460a9"/><rect x="21.45" y="19.65" width="0.95" height="8.39" fill="#0460a9"/><rect x="18.46" y="16.46" width="0.95" height="11.58" fill="#0460a9"/><rect x="24.45" y="16.46" width="0.95" height="11.58" fill="#0460a9"/><path d="M27.8,18.53H24.93v-1h1.92V11.06a2.52,2.52,0,0,0-2.52-2.52H24l-2.11,2.11L19.82,8.54h-.29A2.52,2.52,0,0,0,17,11.06v6.51h1.92v1H16.06V11.06a3.47,3.47,0,0,1,3.47-3.47h.69L21.93,9.3l1.71-1.71h.69a3.47,3.47,0,0,1,3.47,3.47Z" fill="#0460a9"/><rect x="21.45" y="11.46" width="0.95" height="1.06" fill="#0460a9"/><rect x="21.45" y="13.58" width="0.95" height="1.06" fill="#0460a9"/><polygon points="2.6 28.04 1.64 28.04 1.64 22.79 4.88 22.79 4.88 23.75 2.6 23.75 2.6 28.04" fill="#0460a9"/><polygon points="6.84 28.04 5.88 28.04 5.88 15.19 9.12 15.19 9.12 16.14 6.84 16.14 6.84 28.04" fill="#0460a9"/><polygon points="11.08 28.04 10.12 28.04 10.12 7.59 14.84 7.59 14.84 8.54 11.08 8.54 11.08 28.04" fill="#0460a9"/><rect x="14.36" y="20.33" width="0.95" height="7.71" fill="#0460a9"/><polygon points="16.2 22.36 14.84 21 13.48 22.36 12.81 21.68 14.84 19.65 16.88 21.68 16.2 22.36" fill="#0460a9"/></svg>