<svg xmlns="http://www.w3.org/2000/svg" xmlns:xlink="http://www.w3.org/1999/xlink" viewBox="0 0 209.15 50"><defs><linearGradient id="a" x1="213.07" y1="1295.23" x2="228.37" y2="1295.23" gradientTransform="translate(1320.96 -213.04) rotate(90)" gradientUnits="userSpaceOnUse"><stop offset="0" stop-color="#fff"/><stop offset="1"/></linearGradient><linearGradient id="b" x1="213.07" y1="1296.92" x2="229.74" y2="1296.92" xlink:href="#a"/><linearGradient id="c" x1="0" y1="24.34" x2="15.3" y2="24.34" gradientTransform="matrix(1, 0, 0, 1, 0, 0)" xlink:href="#a"/><radialGradient id="d" cx="9.95" cy="26.84" r="7.09" gradientTransform="translate(-0.39 -0.13) scale(0.97)" xlink:href="#a"/><linearGradient id="e" x1="1299.88" y1="-159.99" x2="1315.18" y2="-159.99" gradientTransform="translate(184.32 1349.88) rotate(-90)" xlink:href="#a"/><linearGradient id="f" x1="1299.88" y1="-158.3" x2="1316.55" y2="-158.3" gradientTransform="translate(184.32 1349.88) rotate(-90)" xlink:href="#a"/><linearGradient id="g" x1="1686.74" y1="510.18" x2="1702.04" y2="510.18" gradientTransform="translate(967.3 1534.15) rotate(-138.29)" gradientUnits="userSpaceOnUse"><stop offset="0" stop-color="#093e64"/><stop offset="1" stop-color="#28ade4"/></linearGradient><linearGradient id="h" x1="1686.74" y1="511.87" x2="1703.41" y2="511.87" xlink:href="#g"/></defs><title>Zasób 1</title><g style="isolation:isolate"><path d="M68.5,36.34V19.16H81.24v2.91H72v3.81h8.63v2.89H72v4.68h9.6v2.89Z" fill="#fff"/><path d="M98.33,34.16a11.33,11.33,0,0,0,2.78,1.45l-1.28,2.45a7.91,7.91,0,0,1-1.54-.64q-.16-.08-2.31-1.52a9.23,9.23,0,0,1-3.74.74A8.21,8.21,0,0,1,86,34.3a9.06,9.06,0,0,1-2.24-6.55,9.05,9.05,0,0,1,2.25-6.54,8.08,8.08,0,0,1,6.11-2.34,8,8,0,0,1,6.06,2.34,9.08,9.08,0,0,1,2.24,6.54,11.31,11.31,0,0,1-.62,3.91A8.14,8.14,0,0,1,98.33,34.16Zm-2.79-2a5.19,5.19,0,0,0,1-1.9,8.9,8.9,0,0,0,.33-2.55,6.51,6.51,0,0,0-1.31-4.45,4.74,4.74,0,0,0-6.87,0,6.49,6.49,0,0,0-1.32,4.44,6.65,6.65,0,0,0,1.32,4.51A4.25,4.25,0,0,0,92,33.75a4.07,4.07,0,0,0,1.42-.25,10,10,0,0,0-2.14-1.08l1-2A11.78,11.78,0,0,1,95.55,32.2Z" fill="#fff"/><path d="M118.67,36.34h-3.77l-1.5-3.9h-6.87l-1.42,3.9h-3.68l6.69-17.18h3.67Zm-6.39-6.8-2.37-6.37-2.32,6.38Z" fill="#fff"/><path d="M120.52,36.34V19.16h7.3a12.5,12.5,0,0,1,4,.46,4,4,0,0,1,2,1.65,5,5,0,0,1,.75,2.71,4.59,4.59,0,0,1-1.14,3.19,5.46,5.46,0,0,1-3.4,1.59,8.09,8.09,0,0,1,1.86,1.44,19.58,19.58,0,0,1,2,2.79l2.1,3.35h-4.15l-2.51-3.74a24.25,24.25,0,0,0-1.83-2.53,2.66,2.66,0,0,0-1-.71,5.72,5.72,0,0,0-1.75-.19H124v7.17ZM124,26.43h2.57a13.25,13.25,0,0,0,3.12-.21,1.87,1.87,0,0,0,1-.73A2.24,2.24,0,0,0,131,24.2a2.06,2.06,0,0,0-.46-1.4,2.12,2.12,0,0,0-1.31-.67q-.42-.06-2.53-.06H124Z" fill="#fff"/><path d="M137.84,36.34V19.16h5.57a20.19,20.19,0,0,1,4.13.26A4.5,4.5,0,0,1,150,21.1a5.33,5.33,0,0,1,1,3.35,5.61,5.61,0,0,1-.57,2.66A4.71,4.71,0,0,1,149,28.8a5,5,0,0,1-1.8.81,19.8,19.8,0,0,1-3.6.25h-2.26v6.48Zm3.47-14.27v4.88h1.9a9,9,0,0,0,2.74-.27,2.28,2.28,0,0,0,1.08-.84,2.31,2.31,0,0,0,.39-1.34,2.22,2.22,0,0,0-.55-1.55,2.4,2.4,0,0,0-1.39-.76,16.67,16.67,0,0,0-2.5-.12Z" fill="#fff"/><path d="M160.09,36.34V19.16h3.47v6.76h6.8V19.16h3.47V36.34h-3.47V28.83h-6.8v7.51Z" fill="#fff"/><path d="M177.39,19.16h3.47v9.3a19.3,19.3,0,0,0,.13,2.87A2.78,2.78,0,0,0,182,33a3.69,3.69,0,0,0,2.29.64,3.5,3.5,0,0,0,2.23-.6,2.38,2.38,0,0,0,.9-1.48,19.33,19.33,0,0,0,.15-2.92v-9.5h3.47v9a23.19,23.19,0,0,1-.28,4.37,4.84,4.84,0,0,1-1,2.16,5.24,5.24,0,0,1-2,1.4,8.79,8.79,0,0,1-3.3.52,9.51,9.51,0,0,1-3.73-.57,5.34,5.34,0,0,1-2-1.48,4.73,4.73,0,0,1-1-1.9,20.86,20.86,0,0,1-.34-4.36Z" fill="#fff"/><path d="M194.76,19.16h6.87a19.84,19.84,0,0,1,3,.17,4.47,4.47,0,0,1,1.79.71,4.41,4.41,0,0,1,1.32,1.44,3.89,3.89,0,0,1,.53,2,4.07,4.07,0,0,1-2.41,3.73,4.52,4.52,0,0,1,2.41,1.56,4.14,4.14,0,0,1,.84,2.59,5.11,5.11,0,0,1-.54,2.28,4.59,4.59,0,0,1-1.49,1.77,4.92,4.92,0,0,1-2.33.81q-.87.09-4.18.12h-5.85ZM198.23,22v4h2.27q2,0,2.52-.06a2.29,2.29,0,0,0,1.4-.62,1.81,1.81,0,0,0,.51-1.34,1.88,1.88,0,0,0-.44-1.29,2,2,0,0,0-1.31-.6q-.52-.06-3-.06Zm0,6.83v4.59h3.21a15.69,15.69,0,0,0,2.38-.11,2.15,2.15,0,0,0,1.26-.69,2.11,2.11,0,0,0,.49-1.46,2.24,2.24,0,0,0-.37-1.31,2.12,2.12,0,0,0-1.08-.79,11.78,11.78,0,0,0-3.08-.25Z" fill="#fff"/><path d="M16.67,25c0,4.16,4.16,8.32,8.32,8.33h0a8.36,8.36,0,0,1,8.33,8.33h0A8.36,8.36,0,0,1,25,50h0a8.36,8.36,0,0,1-8.33-8.33h0c0-4.17-4.17-8.33-8.33-8.33h0A8.36,8.36,0,0,1,0,25H0a8.36,8.36,0,0,1,8.33-8.33h0c4.16,0,8.31-4.17,8.31-8.33h0A8.36,8.36,0,0,1,25,0h0a8.36,8.36,0,0,1,8.33,8.33h0A8.36,8.36,0,0,1,25,16.67h0c-4.16,0-8.33,4.16-8.33,8.33Z" fill="#fff" fill-rule="evenodd"/><path d="M41.67,16.67A8.36,8.36,0,0,0,33.33,25h0a8.36,8.36,0,0,0,8.33,8.33h0A8.36,8.36,0,0,0,50,25h0a8.36,8.36,0,0,0-8.33-8.33Z" fill="#f39638" fill-rule="evenodd"/><path d="M31,10.77h0a8.26,8.26,0,0,1-1.37,4.55,8.34,8.34,0,0,0,3.78-7h0a8.32,8.32,0,0,0-15.3-4.55,8.27,8.27,0,0,1,4.55-1.37A8.36,8.36,0,0,1,31,10.77Z" opacity="0.2" fill="url(#a)" style="mix-blend-mode:multiply"/><path d="M19.81,5.37a8.36,8.36,0,0,1,8.33,8.33h0a8.26,8.26,0,0,1-.4,2.54,8.32,8.32,0,0,0,1.87-.91A8.26,8.26,0,0,0,31,10.77h0a8.36,8.36,0,0,0-8.33-8.33,8.27,8.27,0,0,0-4.55,1.37,8.31,8.31,0,0,0-1,2A8.25,8.25,0,0,1,19.81,5.37Z" opacity="0.1" fill="url(#b)" style="mix-blend-mode:multiply"/><path d="M10.75,19.1h0a8.26,8.26,0,0,1,4.55,1.37,8.34,8.34,0,0,0-7-3.78h0A8.32,8.32,0,0,0,3.78,32a8.27,8.27,0,0,1-1.37-4.55A8.36,8.36,0,0,1,10.75,19.1Z" opacity="0.2" fill="url(#c)" style="mix-blend-mode:multiply"/><path d="M5.34,30.27a8.36,8.36,0,0,1,8.33-8.33h0a8.26,8.26,0,0,1,2.54.4,8.32,8.32,0,0,0-.91-1.87,8.26,8.26,0,0,0-4.55-1.37h0a8.36,8.36,0,0,0-8.33,8.33A8.27,8.27,0,0,0,3.78,32a8.31,8.31,0,0,0,2,1A8.25,8.25,0,0,1,5.34,30.27Z" opacity="0.1" fill="url(#d)" style="mix-blend-mode:multiply"/><path d="M19.1,39.25h0a8.26,8.26,0,0,1,1.37-4.55,8.34,8.34,0,0,0-3.78,7h0A8.32,8.32,0,0,0,32,46.22a8.27,8.27,0,0,1-4.55,1.37A8.36,8.36,0,0,1,19.1,39.25Z" opacity="0.2" fill="url(#e)" style="mix-blend-mode:multiply"/><path d="M30.27,44.66a8.36,8.36,0,0,1-8.33-8.33h0a8.26,8.26,0,0,1,.4-2.54,8.32,8.32,0,0,0-1.87.91,8.26,8.26,0,0,0-1.37,4.55h0a8.36,8.36,0,0,0,8.33,8.33A8.27,8.27,0,0,0,32,46.22a8.31,8.31,0,0,0,1-2A8.25,8.25,0,0,1,30.27,44.66Z" opacity="0.1" fill="url(#f)" style="mix-blend-mode:multiply"/><path d="M36,27.81h0a8.26,8.26,0,0,1-2.49-4,8.34,8.34,0,0,0,2.68,7.46h0a8.32,8.32,0,0,0,13.58-8.39,8.27,8.27,0,0,1-2,4.31A8.36,8.36,0,0,1,36,27.81Z" opacity="0.1" fill="url(#g)" style="mix-blend-mode:multiply"/><path d="M47.43,23.08a8.36,8.36,0,0,1-11.77.68h0a8.26,8.26,0,0,1-1.63-2,8.32,8.32,0,0,0-.56,2,8.26,8.26,0,0,0,2.49,4h0a8.36,8.36,0,0,0,11.77-.68,8.27,8.27,0,0,0,2-4.31,8.31,8.31,0,0,0-.86-2.06A8.25,8.25,0,0,1,47.43,23.08Z" opacity="0.05" fill="url(#h)" style="mix-blend-mode:multiply"/></g></svg>