<svg xmlns="http://www.w3.org/2000/svg" viewBox="0 0 25 25"><title>subcat-reopen-schedule</title><path d="M18.58,19.36l.21-.19,4.83-2.46-2.39-1a11,11,0,1,0-5.7,5.58l1.35,2.27Z" fill="#f6f9fb"/><path d="M11.1,14.21a3.1,3.1,0,1,1,3.1-3.11h-.88a2.23,2.23,0,1,0-2.23,2.23Z" fill="#3680ba"/><path d="M11.1,16.87a5.77,5.77,0,1,1,5.77-5.77H16A4.89,4.89,0,1,0,11.1,16Z" fill="#3680ba"/><path d="M11.1,19.54a8.44,8.44,0,1,1,8.44-8.44h-.88a7.56,7.56,0,1,0-7.56,7.56Z" fill="#3680ba"/><path d="M11.1,22.21A11.1,11.1,0,1,1,22.2,11.1h-.88A10.22,10.22,0,1,0,11.1,21.33Z" fill="#3680ba"/><path d="M16.76,25,11.19,11.19,25,16.76l-5.73,2.5Zm-4-12.22,4,10L18.6,18.6l4.13-1.8Z" fill="#3680ba"/><rect x="20.23" y="18.22" width="0.88" height="4.9" transform="translate(-8.56 20.67) rotate(-45)" fill="#3680ba"/></svg>