<svg xmlns="http://www.w3.org/2000/svg" viewBox="0 0 23.27 25"><title>subcat-create-schedule</title><path d="M20.67,10.68c0-.17-.07-.34-.12-.51s-.13-.46-.21-.68L22.4,7.85,21,5.45l-2.46,1a7.88,7.88,0,0,0-.87-.87l1-2.46L16.26,1.7,14.61,3.75a8.66,8.66,0,0,0-1.19-.32L13,.83H10.26l-.4,2.61a8.46,8.46,0,0,0-1.2.32L7,1.7,4.62,3.08l1,2.46a9.63,9.63,0,0,0-.87.87l-2.46-1L.87,7.85,2.92,9.49c-.07.22-.14.46-.2.68s-.08.34-.12.51L0,11.09V24.73H9.11l1.42.27,1.42-.27H23.27V11.08Z" fill="#f6f9fb"/><path d="M10.53,22a1.47,1.47,0,0,0-1.42,1.07,1.28,1.28,0,0,0,0,.82A1.48,1.48,0,1,0,10.53,22Zm0,2.16a.67.67,0,1,1,.67-.67A.67.67,0,0,1,10.53,24.17ZM13,23.09v.82H23.27v-.82Zm-13,0v.82H9.86v-.82ZM3.7,19A1.47,1.47,0,0,0,2.28,20a1.06,1.06,0,0,0-.07.4,1.1,1.1,0,0,0,.07.41A1.48,1.48,0,1,0,3.7,19Zm0,2.16a.67.67,0,1,1,.67-.67A.68.68,0,0,1,3.7,21.11ZM6.17,20v.81h17.1V20ZM0,20v.81H3V20ZM12.35,15.9A1.47,1.47,0,0,0,10.94,17a1.06,1.06,0,0,0-.07.4,1.11,1.11,0,0,0,.07.41,1.47,1.47,0,0,0,1.42,1.07,1.48,1.48,0,1,0,0-3Zm0,2.16a.67.67,0,1,1,.67-.67A.67.67,0,0,1,12.35,18.06ZM14.83,17v.81h8.44V17ZM0,17v.81H11.68V17Zm17.68-4.14a1.47,1.47,0,0,0-1.42,1.08,1.06,1.06,0,0,0-.07.4,1.11,1.11,0,0,0,.07.41,1.47,1.47,0,0,0,1.42,1.07,1.48,1.48,0,0,0,0-3Zm0,2.16a.67.67,0,1,1,.67-.67A.68.68,0,0,1,17.68,15Zm2.47-1.07v.81h3.11v-.81ZM0,13.93v.81H17v-.81ZM16.33,9.34a5.23,5.23,0,0,0-9.92,2.3h.81a4.42,4.42,0,0,1,8.85,0h.81A5.1,5.1,0,0,0,16.33,9.34Zm-2.61,0a3.11,3.11,0,0,0-5.19,2.3h.82a2.29,2.29,0,1,1,4.58,0h.81A3.11,3.11,0,0,0,13.72,9.34Zm7,.51c0-.17-.07-.34-.12-.51s-.13-.46-.21-.68L22.4,7,21,4.62l-2.46,1a7.88,7.88,0,0,0-.87-.87l1-2.46L16.26.87,14.61,2.92a8.66,8.66,0,0,0-1.19-.32L13,0H10.26l-.4,2.61a8.46,8.46,0,0,0-1.2.32L7,.87,4.62,2.25l1,2.46a9.63,9.63,0,0,0-.87.87l-2.46-1L.87,7,2.92,8.66c-.07.22-.14.46-.2.68s-.08.34-.12.51L0,10.26v1.38H.81v-.69l2.5-.38,0-.29a8.88,8.88,0,0,1,.21-.93c.07-.22.14-.46.22-.67l.1-.27-2-1.57.69-1.19L5,6.54l.18-.23A8.69,8.69,0,0,1,6.31,5.14L6.54,5,5.63,2.61l1.19-.69,1.57,2,.27-.1a8.18,8.18,0,0,1,1.61-.43l.29,0L10.95.81h1.37L12.7,3.3l.29,0a8.18,8.18,0,0,1,1.61.43l.27.1,1.57-2,1.19.69L16.73,5l.22.18a8.69,8.69,0,0,1,1.17,1.17l.18.23,2.35-.92.69,1.19-2,1.57.1.27c.08.22.16.45.22.67a8.88,8.88,0,0,1,.21.93l0,.29,2.49.38v.69h.81V10.25Z" fill="#f39638"/></svg>