<svg xmlns="http://www.w3.org/2000/svg" viewBox="0 0 25 25"><title>subcat-schedule-summary</title><path d="M24.54,5.17l-1.42-3.6L18.45.34,16.08,2.41A10.71,10.71,0,0,0,2.47,16.23l-2,2.82V22L3,24.54l4.4-.36L9,22.6A10.71,10.71,0,0,0,22.57,8.85Z" fill="#f6f9fb"/><path d="M2.76,11.22l-.87-.11c0-.31.09-.62.16-.92l.86.19C2.84,10.66,2.79,10.94,2.76,11.22Zm.37-1.67-.84-.26c.09-.3.2-.59.32-.88l.81.34C3.31,9,3.21,9.28,3.13,9.55ZM3.78,8,3,7.56c.14-.27.3-.55.47-.81l.74.47C4.06,7.47,3.91,7.72,3.78,8ZM4.7,6.52,4,6c.19-.25.39-.49.6-.72l.65.59C5.06,6.08,4.88,6.3,4.7,6.52ZM5.86,5.26l-.59-.65c.23-.21.47-.41.72-.6l.54.7C6.29,4.88,6.07,5.07,5.86,5.26Zm1.36-1-.47-.74c.26-.17.53-.32.81-.47L8,3.78C7.71,3.92,7.46,4.06,7.22,4.21Zm1.52-.79L8.4,2.61c.29-.12.58-.23.88-.32l.26.84C9.27,3.21,9,3.31,8.74,3.42Zm1.63-.51L10.18,2c.3-.07.61-.12.92-.16l.11.87C10.93,2.79,10.65,2.84,10.37,2.91Z" fill="#3680ba"/><rect x="12.06" y="1.8" width="0.88" height="0.88" fill="#3680ba"/><rect x="1.8" y="12.06" width="0.88" height="0.88" fill="#3680ba"/><path d="M13.9,23.11l-.11-.87c.28,0,.57-.09.84-.15l.19.86C14.51,23,14.21,23.07,13.9,23.11Zm1.82-.4-.26-.84c.27-.09.54-.18.81-.29l.34.81C16.31,22.51,16,22.62,15.72,22.71ZM17.45,22,17,21.22c.25-.13.5-.28.74-.43l.47.74C18,21.7,17.72,21.85,17.45,22ZM19,21l-.54-.7c.23-.17.45-.36.66-.55l.6.65C19.51,20.6,19.27,20.8,19,21Zm1.38-1.26-.65-.59c.19-.21.38-.43.55-.66L21,19C20.81,19.26,20.61,19.5,20.4,19.73Zm1.14-1.48-.74-.47c.15-.24.3-.49.43-.74l.78.41C21.86,17.71,21.7,18,21.53,18.25Zm.86-1.66-.81-.34c.11-.26.21-.53.29-.81l.84.26C22.62,16,22.51,16.31,22.39,16.59ZM23,14.81l-.86-.19c.06-.28.11-.56.15-.84l.87.11C23.08,14.2,23,14.51,23,14.81Z" fill="#3680ba"/><rect x="12.06" y="22.32" width="0.88" height="0.88" fill="#3680ba"/><rect x="22.33" y="12.06" width="0.88" height="0.88" fill="#3680ba"/><path d="M5.08,25a5.08,5.08,0,0,1-3.59-8.67L4.72,13.1a5.08,5.08,0,0,1,5.89-.94l-.4.78a4.2,4.2,0,0,0-4.87.78L2.11,16.95a4.2,4.2,0,0,0,5.94,5.94l3.23-3.23a4.2,4.2,0,0,0,.78-4.87l.78-.4a5.08,5.08,0,0,1-.94,5.89L8.67,23.51A5,5,0,0,1,5.08,25Z" fill="#3680ba"/><path d="M16.69,13.39a5,5,0,0,1-2.3-.55l.4-.78a4.13,4.13,0,0,0,1.9.46h0a4.17,4.17,0,0,0,3-1.23l3.23-3.23A4.2,4.2,0,0,0,17,2.11L13.72,5.34a4.17,4.17,0,0,0-1.23,3,4.13,4.13,0,0,0,.46,1.9l-.78.4a5,5,0,0,1-.55-2.3A5,5,0,0,1,13.1,4.72l3.23-3.23a5.08,5.08,0,0,1,7.18,7.18L20.29,11.9a5,5,0,0,1-3.59,1.49Z" fill="#3680ba"/><rect x="5.69" y="12.06" width="13.62" height="0.88" transform="translate(-5.18 12.5) rotate(-44.99)" fill="#3680ba"/></svg>