<svg xmlns="http://www.w3.org/2000/svg" viewBox="0 0 29.9 25.05"><title>subcat-schedule-maintenance</title><polygon points="27.32 1.91 27.32 14.26 29.17 18.73 27.32 22.54 23.08 24.41 20.46 22.54 0.48 22.54 0.48 1.91 3.71 1.91 3.71 0.41 4.71 0.41 4.71 1.91 23.08 1.91 23.08 0.41 24.09 0.41 24.09 1.91 27.32 1.91" fill="#f6f9fb"/><path d="M1.06,6.76H26.62v5.36h1V6.76h0V1.57H24.33V0h-1V1.57H4.38V0h-1V1.57H0V22.81H17v-1H1.06Zm0-4.14H3.35V4.17h1V2.62H23.29V4.17h1V2.62h2.28V5.73H1.06Z" fill="#3680ba" stroke="#f6f9fb" stroke-miterlimit="10" stroke-width="0.05"/><path d="M27.66,14.28a6.1,6.1,0,0,0-3.33-1.35h0v-.1h0V8.48h-21v11H17.77a6.06,6.06,0,1,0,9.88-5.2Zm-21,4.17H4.38V16.16H6.67Zm0-3.32H4.38V12.83H6.67Zm0-3.32H4.38V9.51H6.67ZM10,18.45H7.71V16.16H10Zm0-3.32H7.71V12.83H10Zm0-3.32H7.71V9.51H10Zm3.32,6.65H11V16.16h2.29Zm0-3.32H11V12.83h2.29Zm0-3.32H11V9.51h2.29Zm3.32,6.65H14.36V16.16h2.29Zm0-3.33H14.36V12.83h2.29Zm0-3.33H14.36V9.51h2.29ZM21,9.51h2.28V11.8H21Zm0,3.32h2.29v.1h0A5.86,5.86,0,0,0,21,13.6h0ZM17.68,9.51H20V11.8H17.68Zm0,3.32H20v1.45h0a6.64,6.64,0,0,0-.83.84H17.68Zm.09,5.61h-.09V16.16h.77A5.87,5.87,0,0,0,17.77,18.44Zm9.88,3.74a4.44,4.44,0,0,1-.62.63,5,5,0,0,1-6.43,0A5,5,0,0,1,18.79,19a5,5,0,0,1,5-5,5,5,0,0,1,3.84,1.81,5,5,0,0,1,0,6.43Z" fill="#3680ba" stroke="#f6f9fb" stroke-miterlimit="10" stroke-width="0.05"/><polygon points="22.89 20.08 21.41 18.6 20.68 19.33 22.89 21.54 26.95 17.48 26.22 16.75 22.89 20.08" fill="#3680ba" stroke="#f6f9fb" stroke-miterlimit="10" stroke-width="0.05"/></svg>