<?xml version="1.0" encoding="utf-8"?>
<!-- Generator: Adobe Illustrator 21.1.0, SVG Export Plug-In . SVG Version: 6.00 Build 0)  -->
<svg version="1.1" id="Warstwa_1" xmlns="http://www.w3.org/2000/svg" xmlns:xlink="http://www.w3.org/1999/xlink" x="0px" y="0px"
	 viewBox="0 0 35 35" style="enable-background:new 0 0 35 35;" xml:space="preserve">
<style type="text/css">
	.st0{fill:#FFFFFF;}
</style>
<title>ico-settings</title>
<path class="st0" d="M17.5,11.3c-3.4,0-6.2,2.8-6.2,6.2c0,3.4,2.8,6.2,6.2,6.2s6.2-2.8,6.2-6.2c0-1.6-0.7-3.2-1.8-4.4
	C20.7,11.9,19.2,11.3,17.5,11.3z M20.6,20.6c-1.7,1.7-4.5,1.7-6.2,0c-1.7-1.7-1.7-4.5,0-6.2s4.5-1.7,6.2,0c0.8,0.8,1.3,1.9,1.3,3.1
	C21.9,18.7,21.4,19.8,20.6,20.6z M22.2,4.2l1.3,0.6l3.4-1.7l0.6-0.3L28,3.2L31.8,7l0.5,0.5l-0.3,0.6l-1.7,3.4l0.5,1.3l3.6,1.1
	l0.6,0.2v6.7L34.3,21l-3.6,1.1l-0.5,1.3l1.7,3.4l0.3,0.6l-0.5,0.5L28,31.8l-0.5,0.5l-0.6-0.3l-3.4-1.7l-1.3,0.5l-1.1,3.6L20.9,35
	h-6.8l-0.2-0.6l-1.1-3.6l-1.3-0.5L8.1,32l-0.6,0.3L7,31.8L3.2,28l-0.5-0.5l0.3-0.6l1.7-3.4l-0.6-1.3l-3.6-1.2L0,20.9v-6.7l0.6-0.2
	l3.6-1.1l0.6-1.3L3,8.1L2.7,7.5L3.2,7L7,3.2l0.5-0.5l0.6,0.3l3.4,1.7l1.3-0.6l1.2-3.6L14.1,0h6.7l0.2,0.6L22.2,4.2L22.2,4.2z
	 M23.2,6.6l-2.1-0.9l-0.4-0.2l-0.1-0.4l-1-3.4h-4.1l-1.1,3.3l-0.1,0.4l-0.4,0.2l-2.1,0.9l-0.4,0.2L11,6.6L7.9,5L5,7.9L6.6,11
	l0.2,0.4l-0.2,0.4l-0.9,2.1l-0.2,0.4l-0.4,0.1l-3.4,1.1v4.1l3.3,1.1l0.4,0.1l0.2,0.4l0.9,2.1l0.2,0.4L6.6,24L5,27.1L7.9,30l3.1-1.6
	l0.4-0.2l0.4,0.2l2.1,0.9l0.4,0.2l0.1,0.4l1.1,3.4h4.1l1.1-3.4l0.1-0.4l0.4-0.2l2.1-0.9l0.4-0.2l0.4,0.2l3.1,1.6l2.9-2.9L28.4,24
	l-0.2-0.4l0.2-0.4l0.9-2.1l0.2-0.4l0.4-0.1l3.3-1.1v-4.1l-3.3-1.1l-0.4-0.1l-0.2-0.4l-0.9-2.1l-0.2-0.4l0.2-0.4L30,7.9L27.1,5
	L24,6.6l-0.4,0.2L23.2,6.6z"/>
</svg>
