<svg xmlns="http://www.w3.org/2000/svg" viewBox="0 0 31.91 35.46"><title>ico-notification</title><path d="M30.78,26.18a20.32,20.32,0,0,1-3.42-11.3V12.41a11.41,11.41,0,1,0-22.81,0v2.48a20.29,20.29,0,0,1-3.42,11.3.77.77,0,0,0,0,.78.76.76,0,0,0,.67.4l6.5.81a7.86,7.86,0,0,0,15.4,0l.16-.81h6.34a.76.76,0,0,0,.63-1.18Z" fill="none" stroke="#3680ba" stroke-miterlimit="10" stroke-width="2"/><path d="M23.82,27.36a36.22,36.22,0,0,1-15.56.81" fill="none" stroke="#3680ba" stroke-miterlimit="10" stroke-width="2"/></svg>