<?xml version="1.0" encoding="utf-8"?>
<!-- Generator: Adobe Illustrator 21.1.0, SVG Export Plug-In . SVG Version: 6.00 Build 0)  -->
<svg version="1.1" id="Warstwa_1" xmlns="http://www.w3.org/2000/svg" xmlns:xlink="http://www.w3.org/1999/xlink" x="0px" y="0px"
	 viewBox="0 0 31.9 35.5" style="enable-background:new 0 0 31.9 35.5;" xml:space="preserve">
<style type="text/css">
	.st0{fill:none;stroke:#FFFFFF;stroke-width:2;stroke-miterlimit:10;}
</style>
<title>ico-notification</title>
<path class="st0" d="M30.8,26.2c-2.2-3.3-3.4-7.3-3.4-11.3v-2.5c0.2-6.3-4.8-11.6-11.1-11.7S4.7,5.4,4.6,11.7c0,0.2,0,0.5,0,0.7v2.5
	c0,4-1.2,8-3.4,11.3C1,26.4,1,26.7,1.1,27c0.1,0.2,0.4,0.4,0.7,0.4l6.5,0.8c0.9,4.3,5,7,9.3,6.1c3.1-0.6,5.5-3,6.1-6.1l0.2-0.8h6.3
	c0.4,0,0.8-0.3,0.8-0.8C31,26.5,30.9,26.3,30.8,26.2L30.8,26.2z"/>
<path class="st0" d="M23.8,27.4c-5.1,1.4-10.4,1.7-15.6,0.8"/>
</svg>
