<?xml version="1.0" encoding="utf-8"?>
<!-- Generator: Adobe Illustrator 21.1.0, SVG Export Plug-In . SVG Version: 6.00 Build 0)  -->
<svg version="1.1" id="Warstwa_1" xmlns="http://www.w3.org/2000/svg" xmlns:xlink="http://www.w3.org/1999/xlink" x="0px" y="0px"
	 viewBox="0 0 36.2 36.2" style="enable-background:new 0 0 36.2 36.2;" xml:space="preserve">
<style type="text/css">
	.st0{fill:#FFFFFF;stroke:#FFFFFF;stroke-width:0.75;stroke-miterlimit:10;}
</style>
<title>ico-calendar</title>
<path class="st0" d="M35.8,6.7c0-2.4-1.9-4.4-4.4-4.4c0,0,0,0-0.1,0h-5.1V0.4H25v1.9H11.1V0.4H9.9v1.9H4.8c-2.4,0-4.4,1.9-4.4,4.4
	c0,0,0,0,0,0v24.7c0,2.4,1.9,4.4,4.4,4.4c0,0,0,0,0.1,0h26.6c2.4,0,4.4-1.9,4.4-4.4c0,0,0,0,0-0.1V6.7z M34.5,31.4
	c0,1.7-1.4,3.1-3.1,3.2c0,0,0,0-0.1,0H4.8c-1.7,0-3.1-1.4-3.2-3.1c0,0,0,0,0-0.1V13h32.9V31.4z M34.5,11.8H1.6V6.7
	C1.6,5,3,3.6,4.7,3.5c0,0,0,0,0.1,0h5.1v1.9h1.3V3.5H25v1.9h1.3V3.5h5.1c1.7,0,3.2,1.3,3.2,3.1c0,0,0,0.1,0,0.1V11.8z"/>
<polygon class="st0" points="23.9,20.7 23,19.9 16.2,26.7 13.1,23.7 12.2,24.5 16.2,28.5 "/>
</svg>
