<svg xmlns="http://www.w3.org/2000/svg" viewBox="0 0 36.17 36.17"><title>ico-calendar</title><path d="M35.8,6.7a4.4,4.4,0,0,0-4.43-4.43H26.31V.38H25v1.9H11.13V.38H9.86v1.9H4.8A4.4,4.4,0,0,0,.38,6.7V31.37A4.4,4.4,0,0,0,4.8,35.8H31.37a4.4,4.4,0,0,0,4.43-4.43ZM34.53,31.37a3.13,3.13,0,0,1-3.16,3.16H4.8a3.13,3.13,0,0,1-3.16-3.16V13H34.53Zm0-19.61H1.64V6.7A3.13,3.13,0,0,1,4.8,3.54H9.86v1.9h1.27V3.54H25v1.9h1.27V3.54h5.06A3.13,3.13,0,0,1,34.53,6.7Z" fill="#3680ba" stroke="#3680ba" stroke-miterlimit="10" stroke-width="0.75"/><polygon points="23.9 20.74 23.02 19.86 16.19 26.69 13.09 23.65 12.2 24.54 16.19 28.52 23.9 20.74" fill="#3680ba" stroke="#3680ba" stroke-miterlimit="10" stroke-width="0.75"/></svg>