<svg xmlns="http://www.w3.org/2000/svg" viewBox="0 0 30 30"><title>key-01_1</title><polygon points="0 7.5 3 7.5 3 3 7.5 3 7.5 0 0 0 0 7.5" fill="#e74a23"/><polygon points="3 22.5 0 22.5 0 30 7.5 30 7.5 27 3 27 3 22.5" fill="#e74a23"/><polygon points="27 27 22.5 27 22.5 30 30 30 30 22.5 27 22.5 27 27" fill="#e74a23"/><polygon points="22.5 0 22.5 3 27 3 27 7.5 30 7.5 30 0 22.5 0" fill="#e74a23"/><rect y="10.5" width="3" height="9" fill="#e74a23"/><rect x="10.5" y="27" width="9" height="3" fill="#e74a23"/><rect x="27" y="10.5" width="3" height="9" fill="#e74a23"/><rect x="10.5" width="9" height="3" fill="#e74a23"/><polygon points="18.89 8.99 15 12.88 11.11 8.99 8.99 11.11 12.88 15 8.99 18.89 11.11 21.01 15 17.12 18.89 21.01 21.01 18.89 17.12 15 21.01 11.11 18.89 8.99" fill="#e74a23"/></svg>