<svg xmlns="http://www.w3.org/2000/svg" viewBox="0 0 30 30"><title>key-02</title><polygon points="26.99 21 26.99 18 18 18 18 26.99 21 26.99 21 23.11 27.88 30 30 27.88 23.11 21 26.99 21" fill="#f39638"/><polygon points="26.99 9 23.11 9 30 2.12 27.88 0 21 6.88 21 3.01 18 3.01 18 12 26.99 12 26.99 9" fill="#f39638"/><polygon points="9 6.88 2.12 0 0 2.12 6.88 9 3.01 9 3.01 12 12 12 12 3.01 9 3.01 9 6.88" fill="#f39638"/><polygon points="3.01 21 6.88 21 0 27.88 2.12 30 9 23.11 9 26.99 12 26.99 12 18 3.01 18 3.01 21" fill="#f39638"/></svg>