<svg xmlns="http://www.w3.org/2000/svg" viewBox="0 0 23.5 23.5"><title>Zasób 3</title><polygon points="4.75 0 0 0 0 4.75 1 4.75 1 1 4.75 1 4.75 0" fill="#0460a9"/><polygon points="0 18.75 0 23.5 4.75 23.5 4.75 22.5 1 22.5 1 18.75 0 18.75" fill="#0460a9"/><polygon points="22.5 18.75 22.5 22.5 18.75 22.5 18.75 23.5 23.5 23.5 23.5 18.75 22.5 18.75" fill="#0460a9"/><polygon points="23.5 4.75 23.5 0 18.75 0 18.75 1 22.5 1 22.5 4.75 23.5 4.75" fill="#0460a9"/><rect y="8.75" width="1" height="6" fill="#0460a9"/><rect x="8.75" y="22.5" width="6" height="1" fill="#0460a9"/><rect x="22.5" y="8.75" width="1" height="6" fill="#0460a9"/><rect x="8.75" width="6" height="1" fill="#0460a9"/><polygon points="11.75 12.46 14.99 15.7 15.7 14.99 12.46 11.75 15.7 8.51 14.99 7.8 11.75 11.04 8.51 7.8 7.8 8.51 11.04 11.75 7.8 14.99 8.51 15.7 11.75 12.46" fill="#0460a9"/></svg>