<svg xmlns="http://www.w3.org/2000/svg" xmlns:xlink="http://www.w3.org/1999/xlink" viewBox="0 0 99.13 103.89"><defs><linearGradient id="a" x1="94.7" y1="89.61" x2="15.18" y2="43.7" gradientUnits="userSpaceOnUse"><stop offset="0" stop-color="#fff" stop-opacity="0"/><stop offset="1" stop-color="#68a0cb"/></linearGradient></defs><title>tile-role-management</title><path d="M99.13,54.71V73.89a30,30,0,0,1-30,30H35.74L0,70H63.75V23.42Z" opacity="0.25" fill="url(#a)"/><rect x="23.62" y="17.71" width="11.01" height="47.72" fill="#f39638"/><rect x="13.73" y="35.44" width="7.54" height="29.98" fill="#cddfee"/><rect x="3.83" y="53.18" width="7.54" height="12.24" fill="#68a0cb"/><rect y="67.77" width="63.75" height="2.23" fill="#0460a9"/><path d="M51.17,15.28a7.64,7.64,0,1,1,7.64-7.64A7.65,7.65,0,0,1,51.17,15.28Zm0-13a5.41,5.41,0,1,0,5.41,5.41A5.42,5.42,0,0,0,51.17,2.23Z" fill="#0460a9"/><path d="M64.87,25.81V43.24H59.28V65.42H43.07V43.24H37.48V25.81a8.09,8.09,0,0,1,8.1-8.1h1.6l4,4,4-4h1.6a8.11,8.11,0,0,1,8.11,8.1Z" fill="#68a0cb"/><rect x="50.06" y="45.85" width="2.23" height="19.57" fill="#0460a9"/><path d="M64.87,25.81V43.24H59.28V65.42H57v-27h2.23V41h3.36V25.81a5.89,5.89,0,0,0-5.88-5.88h-.68l-4.91,4.92-4.91-4.92h-.68a5.89,5.89,0,0,0-5.88,5.88V41h3.37V38.4h2.22v27H43.07V43.24H37.48V25.81a8.09,8.09,0,0,1,8.1-8.1h1.6l4,4,4-4h1.6a8.11,8.11,0,0,1,8.11,8.1Z" fill="#0460a9"/><rect x="50.06" y="26.74" width="2.23" height="2.47" fill="#0460a9"/><rect x="50.06" y="31.69" width="2.23" height="2.47" fill="#0460a9"/><polygon points="6.06 65.42 3.83 65.42 3.83 53.18 11.38 53.18 11.38 55.41 6.06 55.41 6.06 65.42" fill="#0460a9"/><polygon points="15.96 65.42 13.73 65.42 13.73 35.45 21.27 35.45 21.27 37.67 15.96 37.67 15.96 65.42" fill="#0460a9"/><polygon points="25.85 65.42 23.62 65.42 23.62 17.71 34.63 17.71 34.63 19.93 25.85 19.93 25.85 65.42" fill="#0460a9"/><rect x="33.52" y="47.43" width="2.23" height="18" fill="#0460a9"/><polygon points="37.8 52.17 34.63 49 31.46 52.17 29.89 50.6 34.63 45.85 39.37 50.6 37.8 52.17" fill="#0460a9"/></svg>