<svg xmlns="http://www.w3.org/2000/svg" xmlns:xlink="http://www.w3.org/1999/xlink" viewBox="0 0 98.81 103.07"><defs><linearGradient id="a" x1="98.89" y1="80.98" x2="35.56" y2="44.41" gradientUnits="userSpaceOnUse"><stop offset="0" stop-color="#fff" stop-opacity="0"/><stop offset="1" stop-color="#68a0cb"/></linearGradient></defs><title>tile-metrics-review_1</title><path d="M98.81,53.89V73.07a30,30,0,0,1-30,30H59.09l-31-32.6,7.24-25.59L56.72,11.56Z" opacity="0.25" fill="url(#a)"/><path d="M63.48,35V28.51L56,27.44a24.58,24.58,0,0,0-4-9.78l4.79-6.1-4.8-4.8-6.09,4.79A24.68,24.68,0,0,0,36,7.5L35,0H28.51L27.44,7.5a24.58,24.58,0,0,0-9.78,4l-6.1-4.79-4.8,4.8,4.79,6.1A24.58,24.58,0,0,0,7.5,27.44L0,28.51V35L7.5,36a24.62,24.62,0,0,0,4.05,9.79L6.76,51.92l4.81,4.81,10.72-8.54.17-.14,8.88,1.85,9.47-1.48.61-.1,3.89,3.11,6.61,5.3,4.8-4.81-4.78-6.09A24.66,24.66,0,0,0,56,36ZM31.74,48.9A15.89,15.89,0,1,1,47.62,33,15.9,15.9,0,0,1,31.74,48.9Z" fill="#cddfee"/><path d="M56,36a24.66,24.66,0,0,1-4,9.79l4.78,6.09-4.8,4.81L45.3,51.44h0l1.24-1.55L51.77,54l2.28-2.29-4.63-5.89.46-.62A22.51,22.51,0,0,0,54.12,35l.11-.74,7.25-1v-3l-7.25-1-.11-.74a22.51,22.51,0,0,0-4.24-10.24l-.46-.62,4.63-5.89L51.76,9.43l-5.89,4.63-.62-.46A22.53,22.53,0,0,0,35,9.36l-.75-.11L33.24,2h-3l-1,7.25-.74.11A22.62,22.62,0,0,0,18.23,13.6l-.61.46-5.9-4.63L9.43,11.72l4.63,5.9-.46.61A22.62,22.62,0,0,0,9.36,28.47l-.11.74L2,30.24v3l7.25,1,.11.75A22.53,22.53,0,0,0,13.6,45.25l.46.62L9.43,51.76,11.72,54l5.21-4.17,1.25,1.56-6.61,5.29L6.76,51.92l4.79-6.09A24.62,24.62,0,0,1,7.5,36L0,35V28.51l7.5-1.07a24.58,24.58,0,0,1,4.05-9.78l-4.79-6.1,4.8-4.8,6.1,4.79a24.58,24.58,0,0,1,9.78-4L28.51,0H35L36,7.5a24.68,24.68,0,0,1,9.79,4l6.09-4.79,4.8,4.8-4.79,6.1a24.58,24.58,0,0,1,4,9.78l7.5,1.07V35Z" fill="#0460a9"/><path d="M37,49.9V66.78a5.22,5.22,0,0,1-10.44,0V49.9Z" fill="#68a0cb"/><path d="M37,49.9V66.78a5.22,5.22,0,0,1-10.44,0V49.9h2V66.78a3.24,3.24,0,0,0,.94,2.28,3.32,3.32,0,0,0,4.56,0A3.2,3.2,0,0,0,35,66.78V49.9Z" fill="#0460a9"/><path d="M31.74,15.13a17.89,17.89,0,0,0-5.22,35,16.64,16.64,0,0,0,2,.48,17.43,17.43,0,0,0,6.44,0,16.64,16.64,0,0,0,2-.48,17.89,17.89,0,0,0-5.22-35Zm0,33.77A15.89,15.89,0,1,1,47.62,33,15.9,15.9,0,0,1,31.74,48.9Z" fill="#0460a9"/><rect x="25.83" y="33.18" width="2.36" height="2" fill="#0460a9"/><rect x="30.56" y="33.18" width="2.36" height="2" fill="#0460a9"/><rect x="35.29" y="33.18" width="2.36" height="2" fill="#0460a9"/><path d="M31.74,17.13A15.89,15.89,0,1,0,47.62,33,15.89,15.89,0,0,0,31.74,17.13Zm-3.55,18H25.83v-2h2.36Zm4.73,0H30.56v-2h2.36Zm4.73,0H35.29v-2h2.36Z" fill="#f39638"/></svg>