<svg xmlns="http://www.w3.org/2000/svg" xmlns:xlink="http://www.w3.org/1999/xlink" viewBox="0 0 97.96 102.15"><defs><linearGradient id="a" x1="97.81" y1="80.45" x2="19.93" y2="35.48" gradientUnits="userSpaceOnUse"><stop offset="0" stop-color="#fff" stop-opacity="0"/><stop offset="1" stop-color="#68a0cb"/></linearGradient></defs><title>tile-data-upload</title><path d="M98,30.95V72.15a30,30,0,0,1-30,30H34.57L0,70H50.75V20.61L72,7.33Z" opacity="0.25" fill="url(#a)"/><polygon points="1.18 1.22 1.18 68.43 50.75 68.43 50.75 13.45 39.73 1.22 1.18 1.22" fill="#cddfee"/><circle cx="25.99" cy="35" r="16.69" fill="#68a0cb"/><circle cx="25.99" cy="35" r="6.5" fill="#f39638"/><circle cx="65.42" cy="11.79" r="6.5" fill="#f39638"/><circle cx="65.42" cy="57.76" r="6.5" fill="#f39638"/><polygon points="39.73 1.22 39.73 12.23 50.75 12.23 39.73 1.22" fill="#68a0cb"/><rect x="24.63" y="33.78" width="2.7" height="2.43" fill="#0460a9"/><rect x="64.06" y="10.57" width="2.7" height="2.43" fill="#0460a9"/><rect x="64.06" y="56.55" width="2.7" height="2.43" fill="#0460a9"/><path d="M26,43a8,8,0,1,1,8-8A8,8,0,0,1,26,43Zm0-13.51A5.54,5.54,0,1,0,31.53,35,5.55,5.55,0,0,0,26,29.46Z" fill="#0460a9"/><path d="M65.42,19.76a8,8,0,1,1,8-8A8,8,0,0,1,65.42,19.76Zm0-13.51A5.54,5.54,0,1,0,71,11.79,5.55,5.55,0,0,0,65.42,6.25Z" fill="#0460a9"/><path d="M65.42,65.74a8,8,0,1,1,8-8A8,8,0,0,1,65.42,65.74Zm0-13.51A5.54,5.54,0,1,0,71,57.77,5.55,5.55,0,0,0,65.42,52.22Z" fill="#0460a9"/><rect x="29.68" y="22.34" width="32.25" height="2.43" transform="translate(-5.64 26.06) rotate(-30.01)" fill="#0460a9"/><rect x="44.48" y="30.37" width="2.43" height="32.02" transform="translate(-17.32 62.77) rotate(-60.01)" fill="#0460a9"/><path d="M41.53,44l-2.11-1.22a15.55,15.55,0,0,0,0-15.52L41.53,26a18,18,0,0,1,0,18Z" fill="#0460a9"/><path d="M26,52.94A17.94,17.94,0,1,1,37.82,21.51l-1.61,1.83a15.51,15.51,0,1,0,0,23.32l1.6,1.83A17.94,17.94,0,0,1,26,52.94Z" fill="#0460a9"/><polygon points="51.97 70 0 70 0 0 40.24 0 51.97 11.73 51.97 25.54 49.54 25.54 49.54 12.74 39.23 2.43 2.43 2.43 2.43 67.57 49.54 67.57 49.54 44.46 51.97 44.46 51.97 70" fill="#0460a9"/><polygon points="50.75 13.45 38.52 13.45 38.52 1.22 40.95 1.22 40.95 11.02 50.75 11.02 50.75 13.45" fill="#0460a9"/><rect x="49.54" y="28.24" width="2.43" height="2.7" fill="#0460a9"/><rect x="49.54" y="33.65" width="2.43" height="2.7" fill="#0460a9"/><rect x="49.54" y="39.05" width="2.43" height="2.7" fill="#0460a9"/><rect x="15.17" y="11.02" width="19.16" height="2.43" fill="#0460a9"/><rect x="6.62" y="11.02" width="5.84" height="2.43" fill="#0460a9"/><rect x="6.62" y="5.61" width="13.85" height="2.43" fill="#0460a9"/><rect x="6.62" y="61.94" width="20.71" height="2.43" fill="#0460a9"/><rect x="30.04" y="61.94" width="9.69" height="2.43" fill="#0460a9"/><rect x="6.62" y="56.53" width="38.73" height="2.43" fill="#0460a9"/></svg>