<svg xmlns="http://www.w3.org/2000/svg" xmlns:xlink="http://www.w3.org/1999/xlink" viewBox="0 0 97.07 102.37"><defs><linearGradient id="a" x1="95.9" y1="82.45" x2="18.84" y2="37.97" gradientUnits="userSpaceOnUse"><stop offset="0" stop-color="#fff" stop-opacity="0"/><stop offset="1" stop-color="#68a0cb"/></linearGradient></defs><title>Zasób 1</title><polygon points="1.03 18.94 1.03 69.43 49.61 69.43 58.69 60.02 58.69 18.94 1.03 18.94" fill="#f5f9fc"/><polygon points="49.61 61.03 49.61 68.59 58.01 61.03 49.61 61.03" fill="#68a0cb"/><rect x="1.03" y="4.38" width="57.66" height="14.56" fill="#68a0cb"/><path d="M60,2.94H50.66V0H48.48V2.94H11.54V0H9.36V2.94H0V70.6H50l10-10ZM50.65,66.89V61.25h5.67Zm7.19-7.81H48.48v9.35H2.18V20.08H57.84Zm0-41.18H2.18V5.1H9.36v6.44h2.18V5.1H48.48v6.44h2.18V5.1h7.18Z" fill="#0460a9"/><path d="M14.69,53.19H28V49.28H16.64V47a2.3,2.3,0,0,1,2.3-2.3h2.83a6.21,6.21,0,1,0,0-12.42H18.94a6.21,6.21,0,0,0-6.18,5.61h4a2.3,2.3,0,0,1,2.22-1.7h2.83a2.3,2.3,0,1,1,0,4.6H18.94A6.21,6.21,0,0,0,12.73,47v4.25A2,2,0,0,0,14.69,53.19Z" fill="#f39638"/><path d="M38.23,44.68h5.14v8.51h3.91V32.25H43.37v8.51H38.23a2.3,2.3,0,0,1-2.3-2.3V32.25H32v6.21a6.21,6.21,0,0,0,6.21,6.21Z" fill="#f39638"/><path d="M97.07,53.19V72.37a30,30,0,0,1-30,30H28.56L0,70.6H50l10-10V2.94Z" opacity="0.25" fill="url(#a)"/></svg>