<svg xmlns="http://www.w3.org/2000/svg" xmlns:xlink="http://www.w3.org/1999/xlink" viewBox="0 0 615.27 519.69"><defs><clipPath id="a" transform="translate(-33.61 -39.67)"><rect width="686.16" height="761.53" fill="none"/></clipPath></defs><title>Zasób 5</title><g style="isolation:isolate"><g clip-path="url(#a)"><g opacity="0.25" style="mix-blend-mode:multiply"><path d="M472.72,136a22.94,22.94,0,0,0-2.2-2.06l4-6.74-7.83-4.68-4.08,6.82a22.89,22.89,0,0,0-5.21-1.19l-.71-7.94-9.09.81.7,8a23.07,23.07,0,0,0-4.9,2.07l-5.25-6-6.88,6,5.25,6a23.25,23.25,0,0,0-2.72,4.57l-7.8-1.79-2,8.89,7.75,1.78a23.7,23.7,0,0,0,.45,5.33L424.9,159l3.58,8.38,7.2-3.06a13.81,13.81,0,0,0,3.53,4.15l-4,6.66,7.82,4.68,3.92-6.55a23.45,23.45,0,0,0,5.41,1.32l.67,7.53,9.09-.82-.66-7.43a23.13,23.13,0,0,0,5.23-2.15l4.86,5.58,6.88-6-4.86-5.58a23.16,23.16,0,0,0,2.85-4.9l7.29,1.68,2-8.9-7.38-1.69a23.16,23.16,0,0,0-.57-5.53l7-3L481.29,135l-7.16,3A22.78,22.78,0,0,0,472.72,136Zm-9,25.28a13.44,13.44,0,1,1,1.31-19A13.44,13.44,0,0,1,463.72,161.29Z" transform="translate(-33.61 -39.67)" fill="#fdead7"/><circle cx="421.27" cy="111.48" r="3.38" fill="#03487f"/><line x1="534.47" y1="150.05" x2="534.47" y2="153.4" fill="none" stroke="#03487f" stroke-linecap="round" stroke-linejoin="round" stroke-width="4"/><path d="M568.09,199.78v187a78.21,78.21,0,0,1-156.14,6.7" transform="translate(-33.61 -39.67)" fill="none" stroke="#03487f" stroke-linecap="round" stroke-linejoin="round" stroke-width="4" stroke-dasharray="8.01 8.01"/><path d="M411.73,390.09q-.07-1.67-.07-3.35V386" transform="translate(-33.61 -39.67)" fill="none" stroke="#03487f" stroke-linecap="round" stroke-linejoin="round" stroke-width="4"/><path d="M411.66,379.32V170.53a78.21,78.21,0,1,0-156.42,0v238a64.76,64.76,0,0,1-129.52,0V383.7" transform="translate(-33.61 -39.67)" fill="none" stroke="#03487f" stroke-linecap="round" stroke-linejoin="round" stroke-width="4" stroke-dasharray="8 8"/><line x1="92.11" y1="340.68" x2="92.11" y2="337.33" fill="none" stroke="#03487f" stroke-linecap="round" stroke-linejoin="round" stroke-width="4"/><rect x="373.45" y="316.73" width="10.05" height="23.53" fill="#fff"/><rect x="66.96" y="283.8" width="49.92" height="30.3" fill="#fff" stroke="#03487f" stroke-linejoin="round" stroke-width="4"/><path d="M100.57,353.77h49.92s-12.86,20-25,20-25-20-25-20" transform="translate(-33.61 -39.67)" fill="#fdead7" stroke="#03487f" stroke-linejoin="round" stroke-width="4"/><path d="M102.38,318.45a1.65,1.65,0,0,1-1.65-1.64c0-20.31-19.22-51.71-25.11-60.85l-.07-.11a59.57,59.57,0,1,1,100.41-.1l-.24.36c-7.67,11.9-25.47,41.55-25.58,60.52,0,.06,0,.12,0,.17,0,.51-1.21,1.64-2.5,1.64Z" transform="translate(-33.61 -39.67)" fill="#0460a9"/><path d="M125.72,169.2a54.54,54.54,0,0,1,46,83.78l-.13.19-.14.21a277.17,277.17,0,0,0-13.94,24.17c-7.45,14.67-11.49,26.45-12.29,35.87H105.61c-1.83-21.54-20-51.24-25.77-60.21l-.09-.14a54.53,54.53,0,0,1,46-83.88m0-10a64.58,64.58,0,0,0-54.39,99.42.29.29,0,0,0,.06.09c1.82,2.82,24.32,37.7,24.32,58.14a6.67,6.67,0,0,0,6.67,6.67h45.26c3.69,0,7.53-3,7.53-6.67h0c0-19.92,22.9-55.05,24.92-58.19l0,0a64.58,64.58,0,0,0-54.39-99.42Z" transform="translate(-33.61 -39.67)" fill="#fff"/><path d="M181.83,191.71a64.6,64.6,0,1,0-110.5,66.86.29.29,0,0,0,.06.09c1.82,2.82,24.32,37.7,24.32,58.14a6.67,6.67,0,0,0,6.67,6.67h45.26c3.69,0,7.53-3,7.53-6.67h0c0-19.92,22.9-55.05,24.92-58.19l0,0a64.61,64.61,0,0,0,1.71-66.86" transform="translate(-33.61 -39.67)" fill="none" stroke="#03487f" stroke-linejoin="round" stroke-width="4"/><line x1="66.96" y1="294.38" x2="116.88" y2="294.38" fill="none" stroke="#03487f" stroke-linejoin="round" stroke-width="4"/><line x1="66.96" y1="304.09" x2="116.88" y2="304.09" fill="none" stroke="#03487f" stroke-linejoin="round" stroke-width="4"/><path d="M96.11,226.09s21,36.05,21,97.38H134c0-61.33,21-97.38,21-97.38" transform="translate(-33.61 -39.67)" fill="none" stroke="#03487f" stroke-linejoin="round" stroke-width="4"/><path d="M87.16,201a41.61,41.61,0,0,1,36.5-21.59" transform="translate(-33.61 -39.67)" fill="none" stroke="#fff" stroke-linecap="round" stroke-linejoin="round" stroke-width="4"/><path d="M82,221.07a41.79,41.79,0,0,1,.45-6.16" transform="translate(-33.61 -39.67)" fill="none" stroke="#fff" stroke-linecap="round" stroke-linejoin="round" stroke-width="4"/><line x1="91.91" y1="93.25" x2="91.93" y2="104.21" fill="#fff" stroke="#03487f" stroke-miterlimit="10" stroke-width="4"/><line x1="63.31" y1="98.03" x2="66.72" y2="108.44" fill="#fff" stroke="#03487f" stroke-miterlimit="10" stroke-width="4"/><line x1="37.59" y1="111.4" x2="44.04" y2="120.25" fill="#fff" stroke="#03487f" stroke-miterlimit="10" stroke-width="4"/><line x1="17.25" y1="132.07" x2="26.13" y2="138.49" fill="#fff" stroke="#03487f" stroke-miterlimit="10" stroke-width="4"/><line x1="4.3" y1="158.01" x2="14.73" y2="161.38" fill="#fff" stroke="#03487f" stroke-miterlimit="10" stroke-width="4"/><line y1="186.69" x2="10.96" y2="186.66" fill="#fff" stroke="#03487f" stroke-miterlimit="10" stroke-width="4"/><line x1="4.78" y1="215.29" x2="15.19" y2="211.88" fill="#fff" stroke="#03487f" stroke-miterlimit="10" stroke-width="4"/><line x1="18.15" y1="241.01" x2="27.01" y2="234.55" fill="#fff" stroke="#03487f" stroke-miterlimit="10" stroke-width="4"/><line x1="168.1" y1="239.77" x2="159.22" y2="233.35" fill="#fff" stroke="#03487f" stroke-miterlimit="10" stroke-width="4"/><line x1="181.04" y1="213.83" x2="170.62" y2="210.46" fill="#fff" stroke="#03487f" stroke-miterlimit="10" stroke-width="4"/><line x1="185.34" y1="185.16" x2="174.38" y2="185.18" fill="#fff" stroke="#03487f" stroke-miterlimit="10" stroke-width="4"/><line x1="180.57" y1="156.56" x2="170.16" y2="159.97" fill="#fff" stroke="#03487f" stroke-miterlimit="10" stroke-width="4"/><line x1="167.19" y1="130.83" x2="158.34" y2="137.29" fill="#fff" stroke="#03487f" stroke-miterlimit="10" stroke-width="4"/><line x1="146.52" y1="110.5" x2="140.1" y2="119.38" fill="#fff" stroke="#03487f" stroke-miterlimit="10" stroke-width="4"/><line x1="120.58" y1="97.55" x2="117.22" y2="107.98" fill="#fff" stroke="#03487f" stroke-miterlimit="10" stroke-width="4"/><path d="M155,225.58c-3,.07-5.51-3.88-7.6-3.83-2.87.06-5.06,4.1-7.45,4.12-2.2,0-4.53-4-7.53-4-2.1,0-4.54,4-7.51,4-2.4,0-4.82-4-7.19-4s-5,4-7.24,3.93c-2.65,0-5-4.07-7.15-4.1-4.36-.07-3.68,3.94-7.28,3.86" transform="translate(-33.61 -39.67)" fill="none" stroke="#03487f" stroke-linecap="round" stroke-linejoin="round" stroke-width="4"/><rect x="402.36" y="357.77" width="107.04" height="152.27" fill="#fff" stroke="#03487f" stroke-miterlimit="10" stroke-width="4"/><circle cx="542.67" cy="522.23" r="21.01" transform="translate(-38 -35.08) rotate(-0.48)" fill="#fdead7"/><line x1="511.87" y1="476.85" x2="506.05" y2="488.33" fill="none" stroke="#03487f" stroke-miterlimit="10" stroke-width="4"/><polyline points="515.09 488.25 520.6 482.49 514.99 476.82" fill="none" stroke="#03487f" stroke-miterlimit="10" stroke-width="4"/><polyline points="502.43 488.36 496.81 482.69 502.33 476.93" fill="none" stroke="#03487f" stroke-miterlimit="10" stroke-width="4"/><rect x="402.36" y="357.77" width="107.04" height="17.65" fill="#fff" stroke="#03487f" stroke-miterlimit="10" stroke-width="4"/><line x1="440.09" y1="366.59" x2="503.5" y2="366.59" fill="none" stroke="#03487f" stroke-miterlimit="10" stroke-width="4"/><rect x="402.36" y="357.77" width="31.65" height="17.65" fill="none" stroke="#03487f" stroke-miterlimit="10" stroke-width="4"/><rect x="409.29" y="365.07" width="3.05" height="3.05" fill="#fdead7"/><rect x="416.67" y="365.07" width="3.05" height="3.05" fill="#0460a9"/><rect x="424.03" y="365.07" width="3.05" height="3.05" fill="#fdead7"/><line x1="414.33" y1="384.32" x2="422.32" y2="384.32" fill="none" stroke="#03487f" stroke-miterlimit="10" stroke-width="4"/><line x1="414.33" y1="392.44" x2="422.32" y2="392.44" fill="none" stroke="#03487f" stroke-miterlimit="10" stroke-width="4"/><line x1="414.33" y1="400.56" x2="422.32" y2="400.56" fill="none" stroke="#03487f" stroke-miterlimit="10" stroke-width="4"/><line x1="414.33" y1="408.68" x2="422.32" y2="408.68" fill="none" stroke="#03487f" stroke-miterlimit="10" stroke-width="4"/><line x1="414.33" y1="416.8" x2="422.32" y2="416.8" fill="none" stroke="#03487f" stroke-miterlimit="10" stroke-width="4"/><line x1="414.33" y1="424.93" x2="422.32" y2="424.93" fill="none" stroke="#03487f" stroke-miterlimit="10" stroke-width="4"/><line x1="414.33" y1="433.05" x2="422.32" y2="433.05" fill="none" stroke="#03487f" stroke-miterlimit="10" stroke-width="4"/><line x1="414.33" y1="441.17" x2="422.32" y2="441.17" fill="none" stroke="#03487f" stroke-miterlimit="10" stroke-width="4"/><line x1="414.33" y1="449.29" x2="422.32" y2="449.29" fill="none" stroke="#03487f" stroke-miterlimit="10" stroke-width="4"/><line x1="414.33" y1="457.41" x2="422.32" y2="457.41" fill="none" stroke="#03487f" stroke-miterlimit="10" stroke-width="4"/><line x1="430.88" y1="384.32" x2="447.45" y2="384.32" fill="none" stroke="#f39638" stroke-miterlimit="10" stroke-width="4"/><line x1="431.45" y1="392.5" x2="459.05" y2="392.5" fill="none" stroke="#f39638" stroke-miterlimit="10" stroke-width="4"/><line x1="430.43" y1="400.39" x2="458.03" y2="400.39" fill="none" stroke="#03487f" stroke-miterlimit="10" stroke-width="4"/><line x1="463.74" y1="400.39" x2="497.85" y2="400.39" fill="none" stroke="#0460a9" stroke-miterlimit="10" stroke-width="4"/><line x1="431.45" y1="433.05" x2="459.05" y2="433.05" fill="none" stroke="#f39638" stroke-miterlimit="10" stroke-width="4"/><line x1="430.43" y1="440.94" x2="458.03" y2="440.94" fill="none" stroke="#f39638" stroke-miterlimit="10" stroke-width="4"/><line x1="463.74" y1="440.94" x2="496.22" y2="440.94" fill="none" stroke="#0460a9" stroke-miterlimit="10" stroke-width="4"/><line x1="464.81" y1="408.92" x2="498.93" y2="408.92" fill="none" stroke="#0460a9" stroke-miterlimit="10" stroke-width="4"/><line x1="459.1" y1="408.92" x2="444.45" y2="408.92" fill="none" stroke="#03487f" stroke-miterlimit="10" stroke-width="4"/><line x1="464.2" y1="416.8" x2="488.22" y2="416.8" fill="none" stroke="#0460a9" stroke-miterlimit="10" stroke-width="4"/><line x1="458.49" y1="416.8" x2="443.83" y2="416.8" fill="none" stroke="#03487f" stroke-miterlimit="10" stroke-width="4"/><line x1="464.2" y1="424.93" x2="498.31" y2="424.93" fill="none" stroke="#0460a9" stroke-miterlimit="10" stroke-width="4"/><line x1="458.49" y1="424.93" x2="443.83" y2="424.93" fill="none" stroke="#03487f" stroke-miterlimit="10" stroke-width="4"/><line x1="464.2" y1="449.29" x2="486.59" y2="449.29" fill="none" stroke="#0460a9" stroke-miterlimit="10" stroke-width="4"/><line x1="458.49" y1="449.29" x2="443.83" y2="449.29" fill="none" stroke="#03487f" stroke-miterlimit="10" stroke-width="4"/><line x1="464.2" y1="457.41" x2="496.68" y2="457.41" fill="none" stroke="#0460a9" stroke-miterlimit="10" stroke-width="4"/><line x1="458.49" y1="457.41" x2="443.83" y2="457.41" fill="none" stroke="#03487f" stroke-miterlimit="10" stroke-width="4"/><path d="M542.91,456.93l27.36.24a5.42,5.42,0,1,1,0,10.84h-17.2a5.42,5.42,0,1,0,0,10.84h5.12a5,5,0,1,1,0,10.08H542.66" transform="translate(-33.61 -39.67)" fill="none" stroke="#03487f" stroke-miterlimit="10" stroke-width="4"/><rect x="340.26" y="470.32" width="135.24" height="47.37" fill="#0460a9" stroke="#03487f" stroke-linejoin="round" stroke-width="4"/><rect x="350.29" y="478.61" width="7.89" height="7.89" fill="#fff"/><rect x="362.15" y="478.61" width="7.89" height="7.89" fill="#fff"/><rect x="374" y="478.61" width="7.89" height="7.89" fill="#fff"/><rect x="385.87" y="478.61" width="7.89" height="7.89" fill="#fff"/><rect x="397.73" y="478.61" width="7.89" height="7.89" fill="#fff"/><rect x="409.59" y="478.61" width="7.89" height="7.89" fill="#fff"/><rect x="421.44" y="478.61" width="7.89" height="7.89" fill="#fff"/><rect x="433.3" y="478.61" width="7.89" height="7.89" fill="#fff"/><rect x="445.16" y="478.61" width="7.89" height="7.89" fill="#fff"/><rect x="457.02" y="478.61" width="7.9" height="7.89" fill="#fff"/><rect x="350.29" y="502.14" width="7.89" height="7.9" fill="#fff"/><rect x="362.15" y="502.14" width="7.89" height="7.9" fill="#fff"/><rect x="374" y="502.14" width="7.89" height="7.9" fill="#fff"/><rect x="385.87" y="502.14" width="43.52" height="7.9" fill="#fff"/><rect x="433.3" y="502.14" width="7.89" height="7.9" fill="#fff"/><rect x="445.16" y="502.14" width="7.89" height="7.9" fill="#fff"/><rect x="457.02" y="502.14" width="7.9" height="7.9" fill="#fff"/><rect x="356.44" y="490.53" width="7.89" height="7.9" fill="#fff"/><rect x="368.3" y="490.53" width="7.89" height="7.9" fill="#fff"/><rect x="380.16" y="490.53" width="7.89" height="7.9" fill="#fff"/><rect x="392.02" y="490.53" width="7.9" height="7.9" fill="#fff"/><rect x="403.88" y="490.53" width="7.9" height="7.9" fill="#fff"/><rect x="415.74" y="490.53" width="7.89" height="7.9" fill="#fff"/><rect x="427.6" y="490.53" width="7.9" height="7.9" fill="#fff"/><rect x="439.46" y="490.53" width="7.9" height="7.9" fill="#fff"/><rect x="451.32" y="490.53" width="7.89" height="7.9" fill="#fff"/><path d="M442.12,510v-4.55a5.19,5.19,0,0,0-5.19-5.19L409.71,500a5.39,5.39,0,1,1,0-10.79h12.23a5.39,5.39,0,0,0,0-10.79h-5.1a5,5,0,0,1,0-10h20.27" transform="translate(-33.61 -39.67)" fill="none" stroke="#03487f" stroke-miterlimit="10" stroke-width="4"/><rect x="274.27" y="191.17" width="159.33" height="113.62" fill="#fff" stroke="#03487f" stroke-linejoin="round" stroke-width="4"/><polyline points="404 178.95 446.26 178.95 446.26 270.19" fill="none" stroke="#03487f" stroke-linejoin="round" stroke-width="4"/><rect x="283.7" y="257.15" width="26.99" height="25.36" fill="#0460a9"/><path d="M479.87,317a12.66,12.66,0,0,1-12.67,12.66h-130v-111H479.87V317Z" transform="translate(-33.61 -39.67)" fill="#fdead7" stroke="#03487f" stroke-linejoin="round" stroke-width="4"/><circle cx="303.59" cy="230.36" r="19.89" fill="#fdead7"/><path d="M344.3,225.21v97H478.75a12.61,12.61,0,0,0,1.13-5.2V225.21Z" transform="translate(-33.61 -39.67)" fill="#fff"/><path d="M479.87,317a12.66,12.66,0,0,1-12.67,12.66h-130v-111H479.87V317Z" transform="translate(-33.61 -39.67)" fill="none" stroke="#03487f" stroke-linejoin="round" stroke-width="4"/><path d="M479.87,212a12.66,12.66,0,0,0-25.33,0V318a12.66,12.66,0,0,1,25.33,0Z" transform="translate(-33.61 -39.67)" fill="#fff" stroke="#03487f" stroke-linejoin="round" stroke-width="4"/><line x1="319.5" y1="245.05" x2="358.61" y2="245.05" fill="#fff" stroke="#03487f" stroke-miterlimit="10" stroke-width="4"/><line x1="374.13" y1="245.05" x2="412.24" y2="245.05" fill="#fff" stroke="#03487f" stroke-miterlimit="10" stroke-width="4"/><line x1="319.5" y1="257.15" x2="358.61" y2="257.15" fill="#fff" stroke="#03487f" stroke-miterlimit="10" stroke-width="4"/><line x1="374.13" y1="257.15" x2="412.24" y2="257.15" fill="#fff" stroke="#03487f" stroke-miterlimit="10" stroke-width="4"/><line x1="319.5" y1="270.49" x2="358.61" y2="270.49" fill="#fff" stroke="#03487f" stroke-miterlimit="10" stroke-width="4"/><line x1="374.13" y1="270.49" x2="412.24" y2="270.49" fill="#fff" stroke="#03487f" stroke-miterlimit="10" stroke-width="4"/><polygon points="256.4 214.1 249.44 195.57 242.48 214.1 242.48 293.35 256.4 293.35 256.4 214.1" fill="#0460a9" stroke="#03487f" stroke-miterlimit="10" stroke-width="4"/><polygon points="256.4 214.1 249.44 195.57 242.48 214.1 242.48 293.35 256.4 293.35 256.4 214.1" fill="none" stroke="#03487f" stroke-miterlimit="10" stroke-width="4"/><line x1="249.44" y1="195.57" x2="249.44" y2="190.27" fill="none" stroke="#03487f" stroke-linecap="round" stroke-miterlimit="10" stroke-width="4"/><rect x="242.48" y="293.35" width="13.92" height="12.34" fill="none" stroke="#03487f" stroke-linecap="round" stroke-linejoin="round" stroke-width="4"/><rect x="242.48" y="283.12" width="13.92" height="9.98" fill="#fdead7" stroke="#03487f" stroke-linecap="round" stroke-linejoin="round" stroke-width="4"/><polygon points="242.48 214.1 256.4 214.1 249.44 195.57 242.48 214.1" fill="#fff" stroke="#03487f" stroke-linejoin="round" stroke-width="4"/><rect x="319.5" y="194.9" width="39.12" height="39.12" fill="#0460a9"/><rect x="373.62" y="194.9" width="39.12" height="39.12" fill="#0460a9"/><rect x="305.78" y="360.23" width="167.04" height="22.71" transform="translate(-34.24 -39.01) rotate(-0.1)" fill="#0460a9"/><line x1="423.99" y1="329.78" x2="423.99" y2="318.05" fill="none" stroke="#03487f" stroke-miterlimit="10" stroke-width="4"/><line x1="413.87" y1="329.78" x2="413.87" y2="318.05" fill="none" stroke="#03487f" stroke-miterlimit="10" stroke-width="4"/><line x1="403.75" y1="329.78" x2="403.76" y2="318.05" fill="none" stroke="#03487f" stroke-miterlimit="10" stroke-width="4"/><line x1="393.64" y1="329.78" x2="393.64" y2="318.05" fill="none" stroke="#03487f" stroke-miterlimit="10" stroke-width="4"/><line x1="383.52" y1="329.78" x2="383.52" y2="318.05" fill="none" stroke="#03487f" stroke-miterlimit="10" stroke-width="4"/><line x1="373.4" y1="329.78" x2="373.4" y2="318.04" fill="none" stroke="#03487f" stroke-miterlimit="10" stroke-width="4"/><line x1="363.29" y1="329.78" x2="363.29" y2="318.04" fill="none" stroke="#03487f" stroke-miterlimit="10" stroke-width="4"/><line x1="352.29" y1="329.78" x2="352.3" y2="318.04" fill="none" stroke="#03487f" stroke-miterlimit="10" stroke-width="4"/><line x1="342.18" y1="329.78" x2="342.19" y2="318.04" fill="none" stroke="#03487f" stroke-miterlimit="10" stroke-width="4"/><line x1="332.93" y1="329.78" x2="332.93" y2="318.05" fill="none" stroke="#03487f" stroke-miterlimit="10" stroke-width="4"/><line x1="322.82" y1="329.77" x2="322.82" y2="318.04" fill="none" stroke="#03487f" stroke-miterlimit="10" stroke-width="4"/><line x1="312.69" y1="329.77" x2="312.69" y2="318.04" fill="none" stroke="#03487f" stroke-miterlimit="10" stroke-width="4"/><line x1="302.58" y1="329.77" x2="302.58" y2="318.04" fill="none" stroke="#03487f" stroke-miterlimit="10" stroke-width="4"/><line x1="292.46" y1="329.77" x2="292.46" y2="318.04" fill="none" stroke="#03487f" stroke-miterlimit="10" stroke-width="4"/><line x1="282.35" y1="329.77" x2="282.35" y2="318.04" fill="none" stroke="#03487f" stroke-miterlimit="10" stroke-width="4"/><circle cx="466.66" cy="371.89" r="2.44" transform="matrix(1, -0.09, 0.09, 1, -64.37, 2.59)" fill="#03487f"/><path d="M178.62,405a19.39,19.39,0,0,0-1.85-1.73l3.4-5.67-6.59-3.94-3.44,5.74a19.3,19.3,0,0,0-4.38-1l-.6-6.69-7.65.68.59,6.72a19.41,19.41,0,0,0-4.13,1.74l-4.42-5.07-5.79,5,4.42,5.07a19.39,19.39,0,0,0-2.29,3.85l-6.57-1.51-1.72,7.49,6.53,1.5a19.94,19.94,0,0,0,.38,4.49l-6.14,2.62,3,7.06,6.06-2.58a11.6,11.6,0,0,0,3,3.49l-3.36,5.6,6.59,3.94,3.3-5.51a19.72,19.72,0,0,0,4.56,1.11l.56,6.34,7.65-.69-.55-6.26a19.41,19.41,0,0,0,4.4-1.81l4.09,4.7,5.79-5-4.09-4.7a19.52,19.52,0,0,0,2.4-4.12l6.14,1.41,1.72-7.49-6.21-1.42a19.53,19.53,0,0,0-.48-4.66l5.93-2.52-3-7.07-6,2.57A18.92,18.92,0,0,0,178.62,405ZM171,426.26a11.32,11.32,0,1,1,1.1-16A11.32,11.32,0,0,1,171,426.26Z" transform="translate(-33.61 -39.67)" fill="#fdead7"/><circle cx="129.99" cy="378.05" r="2.84" fill="#03487f"/><path d="M226.92,342.18v-5.24h-6.08a20.37,20.37,0,0,0-.54-2.62l5.58-2.31-2-4.84-5.61,2.33a20.81,20.81,0,0,0-1.5-2.22L221,323l-3.71-3.71-4.3,4.3a20.46,20.46,0,0,0-2.23-1.48l2.31-5.57-4.85-2-2.33,5.62a20.37,20.37,0,0,0-2.63-.51v-6H198v6.08a20.22,20.22,0,0,0-2.62.54l-2.31-5.57-4.84,2,2.32,5.61a20.5,20.5,0,0,0-2.21,1.51l-4.27-4.27-3.71,3.71,4.3,4.3a20.37,20.37,0,0,0-1.48,2.23l-5.57-2.3-2,4.85,5.62,2.32a20.54,20.54,0,0,0-.51,2.63h-6v5.24h6.08a19.71,19.71,0,0,0,.54,2.62l-5.58,2.31,2,4.85,5.61-2.33a20.27,20.27,0,0,0,1.51,2.22l-4.27,4.27,3.71,3.71,4.3-4.3a20.87,20.87,0,0,0,2.23,1.48l-2.3,5.57,4.85,2,2.33-5.62a20.11,20.11,0,0,0,2.63.51v6h5.24v-6.08a19.89,19.89,0,0,0,2.62-.54l2.31,5.58,4.85-2L211,357.16a20.31,20.31,0,0,0,2.22-1.51l4.27,4.27,3.71-3.71-4.3-4.3a20.34,20.34,0,0,0,1.48-2.23L224,352l2-4.84-5.62-2.33a20.44,20.44,0,0,0,.51-2.63Zm-13-10a2.75,2.75,0,1,1-3.75-1A2.75,2.75,0,0,1,213.91,332.15Zm-13.1-7.56a2.75,2.75,0,1,1-2.75,2.75A2.75,2.75,0,0,1,200.81,324.59Zm-9.35,6.56a2.75,2.75,0,1,1-3.75,1A2.75,2.75,0,0,1,191.46,331.15Zm-3.76,16.14a2.75,2.75,0,1,1,3.76,1A2.75,2.75,0,0,1,187.7,347.29Zm13.1,7.56a2.75,2.75,0,1,1,2.75-2.75A2.75,2.75,0,0,1,200.81,354.85Zm0-9.88a5.25,5.25,0,1,1,5.25-5.25A5.25,5.25,0,0,1,200.81,345Zm9.35,3.32a2.75,2.75,0,1,1,3.75-1A2.75,2.75,0,0,1,210.16,348.29Z" transform="translate(-33.61 -39.67)" fill="#fdead7"/><path d="M237.06,464.58a31.14,31.14,0,0,0-2.57-3.11l6.5-8.25-9.6-7.54L224.81,454a31.11,31.11,0,0,0-6.71-2.46l.4-10.66-12.2-.46-.42,10.72a31.06,31.06,0,0,0-6.86,1.92l-6-8.9L182.92,451l6,8.9a30.63,30.63,0,0,0-4.39,5.6l-10.06-3.71-4.22,11.46,10,3.68a31.89,31.89,0,0,0-.31,7.16L169.67,487,173,498.7l10.09-2.85a18,18,0,0,0,4,6.1l-6.43,8.17,9.6,7.55,6.32-8a31.08,31.08,0,0,0,7,2.67l-.4,10.11,12.21.46.39-10a31,31,0,0,0,7.31-2l5.51,8.23,10.15-6.79-5.51-8.23a31,31,0,0,0,4.61-6l9.4,3.46,4.22-11.46-9.51-3.5a30.55,30.55,0,0,0,.19-7.44l9.86-2.79-3.32-11.75-10,2.83A29.75,29.75,0,0,0,237.06,464.58Zm-20.28,26a10.35,10.35,0,1,1,2.85-14.37A10.36,10.36,0,0,1,216.78,490.61Z" transform="translate(-33.61 -39.67)" fill="#fff" stroke="#03487f" stroke-linejoin="round" stroke-width="4"/><path d="M455.6,64.57a23.26,23.26,0,0,0-1.92-2.33l4.86-6.17-7.18-5.64-4.93,6.25a23.25,23.25,0,0,0-5-1.84l.3-8-9.12-.34-.31,8A23.23,23.23,0,0,0,427.16,56l-4.45-6.65-7.59,5.08L419.57,61a22.89,22.89,0,0,0-3.28,4.19l-7.52-2.77L405.61,71l7.47,2.75a23.82,23.82,0,0,0-.23,5.35l-7.64,2.16,2.49,8.78L415.25,88a22.25,22.25,0,0,0,1.41,2.67,22.15,22.15,0,0,0,1.56,1.89l-4.81,6.11,7.18,5.64,4.72-6a23.28,23.28,0,0,0,5.2,2l-.3,7.56,9.13.34.29-7.47a23.2,23.2,0,0,0,5.47-1.47l4.12,6.16,7.59-5.08-4.12-6.16a23.18,23.18,0,0,0,3.45-4.5l7,2.59,3.16-8.57L459.22,81a22.86,22.86,0,0,0,.14-5.56l7.38-2.09-2.49-8.79-7.49,2.12A22.3,22.3,0,0,0,455.6,64.57ZM440.44,84a7.74,7.74,0,1,1,2.13-10.74A7.75,7.75,0,0,1,440.44,84Z" transform="translate(-33.61 -39.67)" fill="#fff" stroke="#03487f" stroke-linejoin="round" stroke-width="4"/><path d="M234,387.21a19,19,0,0,0-1.85-1.74l3.4-5.67-6.59-3.94-3.44,5.74a19.32,19.32,0,0,0-4.39-1l-.6-6.69-7.65.69.59,6.72a19.44,19.44,0,0,0-4.13,1.74L204.9,378l-5.79,5,4.42,5.08a19.28,19.28,0,0,0-2.29,3.85l-6.58-1.51-1.72,7.49,6.53,1.5a20.14,20.14,0,0,0,.38,4.49l-6.15,2.62,3,7.06,6.07-2.58a11.58,11.58,0,0,0,3,3.49l-3.37,5.61,6.59,3.95,3.3-5.51a19.68,19.68,0,0,0,4.56,1.11l.56,6.34,7.65-.69-.55-6.26a19.45,19.45,0,0,0,4.41-1.81L233,422l5.79-5-4.09-4.7a19.81,19.81,0,0,0,2.4-4.13l6.14,1.41L245,402l-6.21-1.43a19.42,19.42,0,0,0-.48-4.66l5.93-2.52-3-7.07-6,2.57A18.11,18.11,0,0,0,234,387.21ZM226.4,408.5a11.32,11.32,0,1,1,1.1-16A11.33,11.33,0,0,1,226.4,408.5Z" transform="translate(-33.61 -39.67)" fill="#0460a9"/><circle cx="218.96" cy="399.96" r="5.39" transform="translate(-242.46 202.5) rotate(-41.06)" fill="#0460a9"/><path d="M522.63,91.82a19,19,0,0,0-1.86-1.73l3.38-5.69-6.61-3.92-3.42,5.75a19.31,19.31,0,0,0-4.39-1l-.62-6.69-7.65.71.62,6.72A19.57,19.57,0,0,0,498,87.76l-4.44-5.06-5.78,5.07,4.44,5.06a19.31,19.31,0,0,0-2.28,3.86l-6.58-1.49-1.69,7.5,6.53,1.48a20.13,20.13,0,0,0,.39,4.49l-6.14,2.64,3,7.05,6.06-2.6a19.44,19.44,0,0,0,1.48,2.07,19.54,19.54,0,0,0,1.51,1.41l-3.35,5.62,6.61,3.92,3.28-5.53a19.69,19.69,0,0,0,4.56,1.1l.58,6.34,7.65-.71-.58-6.26a19.43,19.43,0,0,0,4.4-1.82l4.11,4.69,5.78-5.07-4.11-4.68a19.74,19.74,0,0,0,2.39-4.13l6.14,1.39,1.7-7.5-6.22-1.41a19.29,19.29,0,0,0-.49-4.66L532.89,98l-3-7.06-6,2.59A18.47,18.47,0,0,0,522.63,91.82Zm-7.51,21.32a11.32,11.32,0,1,1,1-16A11.32,11.32,0,0,1,515.12,113.14Z" transform="translate(-33.61 -39.67)" fill="#0460a9"/><path d="M503.6,108.18a5.39,5.39,0,1,1,7.61.5A5.39,5.39,0,0,1,503.6,108.18Z" transform="translate(-33.61 -39.67)" fill="#0460a9"/><circle cx="282.99" cy="447.98" r="19.59" transform="translate(-258.25 256.35) rotate(-41.05)" fill="#fdead7"/><circle cx="282.99" cy="447.98" r="13.25" transform="translate(-258.26 256.39) rotate(-41.06)" fill="#fff"/><line x1="225.6" y1="407.06" x2="239.46" y2="408.01" fill="none" stroke="#03487f" stroke-linecap="round" stroke-miterlimit="10" stroke-width="4"/><line x1="258.9" y1="409.35" x2="272.75" y2="410.31" fill="none" stroke="#03487f" stroke-linecap="round" stroke-miterlimit="10" stroke-width="4"/><line x1="247.55" y1="432.25" x2="248.51" y2="418.4" fill="none" stroke="#03487f" stroke-linecap="round" stroke-miterlimit="10" stroke-width="4"/><line x1="249.85" y1="398.96" x2="250.8" y2="385.11" fill="none" stroke="#03487f" stroke-linecap="round" stroke-miterlimit="10" stroke-width="4"/><line x1="231.85" y1="424.47" x2="267.08" y2="393.78" fill="none" stroke="#03487f" stroke-linecap="round" stroke-miterlimit="10" stroke-width="4"/><line x1="234.12" y1="391.51" x2="264.81" y2="426.74" fill="none" stroke="#03487f" stroke-linecap="round" stroke-miterlimit="10" stroke-width="4"/><circle cx="282.99" cy="447.98" r="8.94" transform="translate(-258.26 256.38) rotate(-41.06)" fill="#fff" stroke="#03487f" stroke-linecap="round" stroke-miterlimit="10" stroke-width="4"/><circle cx="282.99" cy="447.98" r="3.73" transform="translate(-258.24 256.32) rotate(-41.05)" fill="#0460a9"/><circle cx="133.49" cy="489.33" r="20.05" transform="translate(-322.18 168.35) rotate(-41.06)" fill="#fff"/><circle cx="133.36" cy="489.44" r="12.04" transform="translate(-322.29 168.3) rotate(-41.06)" fill="#0460a9"/><circle cx="133.25" cy="489.32" r="19.89" transform="translate(-322.22 168.17) rotate(-41.05)" fill="none" stroke="#03487f" stroke-linecap="round" stroke-miterlimit="10" stroke-width="4"/><line x1="93.13" y1="430.85" x2="91.47" y2="425.61" fill="#0460a9" stroke="#03487f" stroke-linecap="round" stroke-miterlimit="10" stroke-width="4"/><line x1="81.91" y1="440.62" x2="77.01" y2="438.21" fill="#0460a9" stroke="#03487f" stroke-linecap="round" stroke-miterlimit="10" stroke-width="4"/><line x1="106.62" y1="468.47" x2="108.24" y2="473.59" fill="#0460a9" stroke="#03487f" stroke-linecap="round" stroke-miterlimit="10" stroke-width="4"/><line x1="117.83" y1="458.7" x2="122.62" y2="461.06" fill="#0460a9" stroke="#03487f" stroke-linecap="round" stroke-miterlimit="10" stroke-width="4"/><line x1="81.06" y1="456.41" x2="75.92" y2="458.03" fill="#0460a9" stroke="#03487f" stroke-linecap="round" stroke-miterlimit="10" stroke-width="4"/><line x1="90.83" y1="467.62" x2="88.47" y2="472.43" fill="#0460a9" stroke="#03487f" stroke-linecap="round" stroke-miterlimit="10" stroke-width="4"/><line x1="109.14" y1="431.95" x2="111.45" y2="427.08" fill="#0460a9" stroke="#03487f" stroke-linecap="round" stroke-miterlimit="10" stroke-width="4"/><line x1="118.91" y1="443.17" x2="123.99" y2="441.48" fill="#0460a9" stroke="#03487f" stroke-linecap="round" stroke-miterlimit="10" stroke-width="4"/><path d="M129.52,492.57a4.95,4.95,0,1,1,7,.48A4.95,4.95,0,0,1,129.52,492.57Z" transform="translate(-33.61 -39.67)" fill="#fff" stroke="#03487f" stroke-linecap="round" stroke-miterlimit="10" stroke-width="4"/><circle cx="238.89" cy="79.71" r="20.05" transform="translate(-27.22 136.84) rotate(-41.06)" fill="#fff"/><circle cx="238.77" cy="79.82" r="12.04" transform="translate(-27.33 136.77) rotate(-41.05)" fill="#fdead7"/><circle cx="238.66" cy="79.7" r="19.89" transform="translate(-27.27 136.66) rotate(-41.05)" fill="none" stroke="#03487f" stroke-linecap="round" stroke-miterlimit="10" stroke-width="4"/><line x1="198.53" y1="21.23" x2="196.88" y2="15.99" fill="#0460a9" stroke="#03487f" stroke-linecap="round" stroke-miterlimit="10" stroke-width="4"/><line x1="187.31" y1="31" x2="182.42" y2="28.59" fill="#0460a9" stroke="#03487f" stroke-linecap="round" stroke-miterlimit="10" stroke-width="4"/><line x1="212.02" y1="58.85" x2="213.64" y2="63.97" fill="#0460a9" stroke="#03487f" stroke-linecap="round" stroke-miterlimit="10" stroke-width="4"/><line x1="223.24" y1="49.08" x2="228.03" y2="51.44" fill="#0460a9" stroke="#03487f" stroke-linecap="round" stroke-miterlimit="10" stroke-width="4"/><line x1="186.47" y1="46.79" x2="181.33" y2="48.41" fill="#0460a9" stroke="#03487f" stroke-linecap="round" stroke-miterlimit="10" stroke-width="4"/><line x1="196.24" y1="58" x2="193.87" y2="62.81" fill="#0460a9" stroke="#03487f" stroke-linecap="round" stroke-miterlimit="10" stroke-width="4"/><line x1="214.54" y1="22.33" x2="216.85" y2="17.46" fill="#0460a9" stroke="#03487f" stroke-linecap="round" stroke-miterlimit="10" stroke-width="4"/><line x1="224.31" y1="33.55" x2="229.4" y2="31.86" fill="#0460a9" stroke="#03487f" stroke-linecap="round" stroke-miterlimit="10" stroke-width="4"/><circle cx="238.66" cy="79.7" r="4.95" transform="translate(-27.27 136.68) rotate(-41.06)" fill="#fff" stroke="#03487f" stroke-linecap="round" stroke-miterlimit="10" stroke-width="4"/><circle cx="177.19" cy="442.33" r="2.71" fill="#fdead7"/><polygon points="218.19 140.24 205.36 148.19 218.19 156.15 309.64 156.15 309.64 140.24 218.19 140.24" fill="#fdead7" stroke="#03487f" stroke-miterlimit="10" stroke-width="4"/><rect x="233.5" y="140.24" width="25.65" height="15.91" fill="#fff"/><polygon points="218.19 140.24 205.36 148.19 218.19 156.15 309.64 156.15 309.64 140.24 218.19 140.24" fill="none" stroke="#03487f" stroke-miterlimit="10" stroke-width="4"/><polyline points="309.64 156.15 309.64 164.11 281.21 164.11" fill="none" stroke="#03487f" stroke-linecap="round" stroke-linejoin="round" stroke-width="4"/><line x1="205.36" y1="148.19" x2="197.9" y2="148.19" fill="none" stroke="#03487f" stroke-linecap="round" stroke-miterlimit="10" stroke-width="4"/><rect x="309.64" y="142.44" width="10.75" height="11.88" fill="none" stroke="#03487f" stroke-linecap="round" stroke-linejoin="round" stroke-width="4"/><rect x="476.1" y="129.01" width="115.84" height="199.5" rx="9.96" ry="9.96" fill="#fdead7" stroke="#03487f" stroke-miterlimit="10" stroke-width="4"/><line x1="516.72" y1="142.43" x2="549.92" y2="142.43" fill="none" stroke="#03487f" stroke-miterlimit="10" stroke-width="4"/><rect x="485.53" y="156.75" width="96" height="137.1" fill="#fff" stroke="#03487f" stroke-linejoin="round" stroke-width="4"/><rect x="496.09" y="176.86" width="14.04" height="14.04" fill="#0460a9"/><rect x="516.9" y="176.86" width="14.04" height="14.04" fill="#fff" stroke="#03487f" stroke-linejoin="round" stroke-width="4"/><rect x="536.76" y="176.86" width="14.05" height="14.04" fill="#0460a9"/><rect x="556.51" y="176.86" width="14.05" height="14.04" fill="#0460a9"/><rect x="556.51" y="200.12" width="14.05" height="14.05" fill="#fff" stroke="#03487f" stroke-linejoin="round" stroke-width="4"/><rect x="496.09" y="200.12" width="14.04" height="14.04" fill="#fdead7"/><rect x="516.9" y="200.12" width="14.04" height="14.04" fill="#0460a9"/><rect x="536.76" y="200.12" width="14.05" height="14.04" fill="#0460a9"/><rect x="556.51" y="224.25" width="14.05" height="14.05" fill="#fdead7"/><rect x="496.09" y="224.25" width="14.04" height="14.04" fill="#0460a9"/><rect x="516.9" y="224.25" width="14.04" height="14.04" fill="#fff" stroke="#03487f" stroke-linejoin="round" stroke-width="4"/><rect x="536.76" y="224.25" width="14.05" height="14.04" fill="#0460a9"/><rect x="540.73" y="253.14" width="22.68" height="22.68" fill="#fff" stroke="#03487f" stroke-linejoin="round" stroke-width="4"/><line x1="518.46" y1="250.65" x2="518.46" y2="278.31" fill="none" stroke="#03487f" stroke-linejoin="round" stroke-width="4"/><line x1="532.29" y1="264.48" x2="504.63" y2="264.48" fill="none" stroke="#03487f" stroke-linejoin="round" stroke-width="4"/><rect x="303.23" y="364.52" width="40.72" height="40.72" fill="#fdead7"/><rect x="241.82" y="44.5" width="114.08" height="28.83" fill="#fdead7"/><rect x="272.33" y="2" width="53.07" height="28.83" fill="#fff" stroke="#03487f" stroke-linejoin="round" stroke-width="4"/><rect x="241.82" y="86.99" width="31.76" height="28.83" fill="#0460a9"/><rect x="282.98" y="86.99" width="31.76" height="28.83" fill="#0460a9"/><rect x="324.14" y="86.99" width="31.76" height="28.83" fill="#0460a9"/><line x1="298.86" y1="30.83" x2="298.86" y2="44.5" fill="#fdead7" stroke="#03487f" stroke-linejoin="round" stroke-width="4"/><line x1="257.7" y1="73.33" x2="257.7" y2="86.99" fill="#fdead7" stroke="#03487f" stroke-linejoin="round" stroke-width="4"/><line x1="298.86" y1="73.33" x2="298.86" y2="86.99" fill="#fdead7" stroke="#03487f" stroke-linejoin="round" stroke-width="4"/><line x1="340.03" y1="73.33" x2="340.03" y2="86.99" fill="#fdead7" stroke="#03487f" stroke-linejoin="round" stroke-width="4"/><line x1="271.13" y1="58.1" x2="328.55" y2="58.1" fill="#fff" stroke="#03487f" stroke-miterlimit="10" stroke-width="4"/><circle cx="257.7" cy="101.41" r="3.38" fill="#03487f"/><circle cx="298.86" cy="101.41" r="3.38" fill="#03487f"/><circle cx="340.03" cy="101.41" r="3.38" fill="#03487f"/><line x1="249.04" y1="455.66" x2="249.04" y2="458.33" fill="none" stroke="#03487f" stroke-linecap="square" stroke-miterlimit="10" stroke-width="4"/><line x1="249.04" y1="455.66" x2="249.04" y2="458.33" fill="none" stroke="#03487f" stroke-linecap="square" stroke-miterlimit="10" stroke-width="4"/><line x1="240.7" y1="459.46" x2="242.6" y2="461.35" fill="none" stroke="#03487f" stroke-linecap="square" stroke-miterlimit="10" stroke-width="4"/><line x1="237.5" y1="468.05" x2="240.18" y2="468.05" fill="none" stroke="#03487f" stroke-linecap="square" stroke-miterlimit="10" stroke-width="4"/><line x1="241.3" y1="476.38" x2="243.19" y2="474.49" fill="none" stroke="#03487f" stroke-linecap="square" stroke-miterlimit="10" stroke-width="4"/><line x1="249.89" y1="479.59" x2="249.89" y2="476.91" fill="none" stroke="#03487f" stroke-linecap="square" stroke-miterlimit="10" stroke-width="4"/><line x1="258.22" y1="475.78" x2="256.33" y2="473.89" fill="none" stroke="#03487f" stroke-linecap="square" stroke-miterlimit="10" stroke-width="4"/><line x1="261.43" y1="467.2" x2="258.75" y2="467.2" fill="none" stroke="#03487f" stroke-linecap="square" stroke-miterlimit="10" stroke-width="4"/><line x1="257.62" y1="458.87" x2="255.73" y2="460.76" fill="none" stroke="#03487f" stroke-linecap="square" stroke-miterlimit="10" stroke-width="4"/><line x1="53.54" y1="353.11" x2="53.54" y2="355.78" fill="none" stroke="#03487f" stroke-linecap="square" stroke-miterlimit="10" stroke-width="4"/><line x1="53.54" y1="353.11" x2="53.54" y2="355.78" fill="none" stroke="#03487f" stroke-linecap="square" stroke-miterlimit="10" stroke-width="4"/><line x1="45.21" y1="356.91" x2="47.1" y2="358.8" fill="none" stroke="#03487f" stroke-linecap="square" stroke-miterlimit="10" stroke-width="4"/><line x1="42" y1="365.5" x2="44.68" y2="365.5" fill="none" stroke="#03487f" stroke-linecap="square" stroke-miterlimit="10" stroke-width="4"/><line x1="45.8" y1="373.83" x2="47.7" y2="371.94" fill="none" stroke="#03487f" stroke-linecap="square" stroke-miterlimit="10" stroke-width="4"/><line x1="54.39" y1="377.03" x2="54.39" y2="374.36" fill="none" stroke="#03487f" stroke-linecap="square" stroke-miterlimit="10" stroke-width="4"/><line x1="62.73" y1="373.23" x2="60.83" y2="371.34" fill="none" stroke="#03487f" stroke-linecap="square" stroke-miterlimit="10" stroke-width="4"/><line x1="65.93" y1="364.65" x2="63.25" y2="364.65" fill="none" stroke="#03487f" stroke-linecap="square" stroke-miterlimit="10" stroke-width="4"/><line x1="62.12" y1="356.32" x2="60.23" y2="358.21" fill="none" stroke="#03487f" stroke-linecap="square" stroke-miterlimit="10" stroke-width="4"/><line x1="508.38" y1="87.62" x2="508.38" y2="90.29" fill="none" stroke="#03487f" stroke-linecap="square" stroke-miterlimit="10" stroke-width="4"/><line x1="508.38" y1="87.62" x2="508.38" y2="90.29" fill="none" stroke="#03487f" stroke-linecap="square" stroke-miterlimit="10" stroke-width="4"/><line x1="500.05" y1="91.42" x2="501.94" y2="93.31" fill="none" stroke="#03487f" stroke-linecap="square" stroke-miterlimit="10" stroke-width="4"/><line x1="496.84" y1="100" x2="499.52" y2="100" fill="none" stroke="#03487f" stroke-linecap="square" stroke-miterlimit="10" stroke-width="4"/><line x1="500.64" y1="108.34" x2="502.54" y2="106.45" fill="none" stroke="#03487f" stroke-linecap="square" stroke-miterlimit="10" stroke-width="4"/><line x1="509.23" y1="111.54" x2="509.23" y2="108.87" fill="none" stroke="#03487f" stroke-linecap="square" stroke-miterlimit="10" stroke-width="4"/><line x1="517.57" y1="107.74" x2="515.67" y2="105.85" fill="none" stroke="#03487f" stroke-linecap="square" stroke-miterlimit="10" stroke-width="4"/><line x1="520.77" y1="99.16" x2="518.09" y2="99.16" fill="none" stroke="#03487f" stroke-linecap="square" stroke-miterlimit="10" stroke-width="4"/><line x1="516.97" y1="90.82" x2="515.07" y2="92.71" fill="none" stroke="#03487f" stroke-linecap="square" stroke-miterlimit="10" stroke-width="4"/><line x1="148.71" y1="46.04" x2="148.71" y2="48.71" fill="none" stroke="#03487f" stroke-linecap="square" stroke-miterlimit="10" stroke-width="4"/><line x1="148.71" y1="46.04" x2="148.71" y2="48.71" fill="none" stroke="#03487f" stroke-linecap="square" stroke-miterlimit="10" stroke-width="4"/><line x1="140.37" y1="49.84" x2="142.27" y2="51.73" fill="none" stroke="#03487f" stroke-linecap="square" stroke-miterlimit="10" stroke-width="4"/><line x1="137.16" y1="58.43" x2="139.84" y2="58.43" fill="none" stroke="#03487f" stroke-linecap="square" stroke-miterlimit="10" stroke-width="4"/><line x1="140.97" y1="66.76" x2="142.86" y2="64.87" fill="none" stroke="#03487f" stroke-linecap="square" stroke-miterlimit="10" stroke-width="4"/><line x1="149.55" y1="69.97" x2="149.55" y2="67.29" fill="none" stroke="#03487f" stroke-linecap="square" stroke-miterlimit="10" stroke-width="4"/><line x1="157.89" y1="66.16" x2="156" y2="64.27" fill="none" stroke="#03487f" stroke-linecap="square" stroke-miterlimit="10" stroke-width="4"/><line x1="161.09" y1="57.58" x2="158.42" y2="57.58" fill="none" stroke="#03487f" stroke-linecap="square" stroke-miterlimit="10" stroke-width="4"/><line x1="157.29" y1="49.25" x2="155.4" y2="51.14" fill="none" stroke="#03487f" stroke-linecap="square" stroke-miterlimit="10" stroke-width="4"/><circle cx="343.02" cy="404.09" r="23.45" fill="none" stroke="#03487f" stroke-linecap="round" stroke-miterlimit="10" stroke-width="8" stroke-dasharray="0 18"/><rect x="319.5" y="194.9" width="39.12" height="39.12" fill="#fff" stroke="#03487f" stroke-miterlimit="10" stroke-width="4"/><line x1="319.5" y1="194.9" x2="358.61" y2="234.02" fill="#fff" stroke="#03487f" stroke-miterlimit="10" stroke-width="4"/><line x1="358.61" y1="194.9" x2="319.5" y2="234.02" fill="#fff" stroke="#03487f" stroke-miterlimit="10" stroke-width="4"/><circle cx="581.52" cy="380.89" r="33.74" fill="#0460a9"/><polygon points="571.73 365.6 598.23 380.89 571.73 396.19 571.73 365.6" fill="#fff" stroke="#03487f" stroke-linejoin="round" stroke-width="4"/><line x1="197.01" y1="239.56" x2="197.01" y2="262.69" fill="#fff" stroke="#03487f" stroke-linejoin="round" stroke-width="4"/><line x1="208.57" y1="251.12" x2="185.45" y2="251.12" fill="#fff" stroke="#03487f" stroke-linejoin="round" stroke-width="4"/><line x1="249.85" y1="339.4" x2="249.85" y2="362.52" fill="#fff" stroke="#03487f" stroke-linejoin="round" stroke-width="4"/><line x1="261.41" y1="350.96" x2="238.29" y2="350.96" fill="#fff" stroke="#03487f" stroke-linejoin="round" stroke-width="4"/><line x1="559.64" y1="443.03" x2="559.64" y2="466.15" fill="#fff" stroke="#03487f" stroke-linejoin="round" stroke-width="4"/><line x1="571.2" y1="454.59" x2="548.07" y2="454.59" fill="#fff" stroke="#03487f" stroke-linejoin="round" stroke-width="4"/><circle cx="534.02" cy="310.92" r="9.1" fill="#fff"/><circle cx="534.02" cy="310.92" r="3.32" fill="#03487f"/><path d="M245.17,139.69v-5.24h-6.08a20.39,20.39,0,0,0-.54-2.62l5.58-2.31-2-4.84L236.5,127a20.81,20.81,0,0,0-1.5-2.22l4.27-4.27-3.71-3.71-4.3,4.3a20.47,20.47,0,0,0-2.23-1.48l2.31-5.57-4.85-2-2.33,5.62a20.35,20.35,0,0,0-2.63-.51v-6h-5.25v6.08a20.2,20.2,0,0,0-2.62.54l-2.31-5.57-4.84,2,2.32,5.61a20.49,20.49,0,0,0-2.21,1.51L202.34,117l-3.71,3.71,4.3,4.3a20.37,20.37,0,0,0-1.48,2.23l-5.57-2.3-2,4.85,5.62,2.32a20.54,20.54,0,0,0-.51,2.63h-6V140H199a19.71,19.71,0,0,0,.54,2.62L194,144.94l2,4.85,5.61-2.33a20.27,20.27,0,0,0,1.51,2.22l-4.27,4.27,3.71,3.71,4.3-4.3a20.86,20.86,0,0,0,2.23,1.48l-2.3,5.57,4.85,2,2.33-5.62a20.12,20.12,0,0,0,2.63.51v6h5.24v-6.08a19.89,19.89,0,0,0,2.62-.54l2.31,5.58,4.85-2-2.33-5.62a20.31,20.31,0,0,0,2.22-1.51l4.27,4.27,3.71-3.71-4.3-4.3a20.34,20.34,0,0,0,1.48-2.23l5.57,2.31,2-4.84-5.62-2.33a20.43,20.43,0,0,0,.51-2.63Zm-13-10a2.75,2.75,0,1,1-3.75-1A2.75,2.75,0,0,1,232.16,129.66Zm-13.1-7.56a2.75,2.75,0,1,1-2.75,2.75A2.75,2.75,0,0,1,219.06,122.1Zm-9.35,6.56a2.75,2.75,0,1,1-3.75,1A2.75,2.75,0,0,1,209.71,128.66ZM206,144.79a2.75,2.75,0,1,1,3.76,1A2.75,2.75,0,0,1,206,144.79Zm13.1,7.56a2.75,2.75,0,1,1,2.75-2.75A2.75,2.75,0,0,1,219.06,152.36Zm0-9.88a5.25,5.25,0,1,1,5.25-5.25A5.25,5.25,0,0,1,219.06,142.48Zm9.35,3.32a2.75,2.75,0,1,1,3.75-1A2.75,2.75,0,0,1,228.41,145.8Z" transform="translate(-33.61 -39.67)" fill="#0460a9"/></g></g></g></svg>