<svg xmlns="http://www.w3.org/2000/svg" xmlns:xlink="http://www.w3.org/1999/xlink" viewBox="0 0 245.81 183.96"><defs><linearGradient id="a" x1="-733.97" y1="-140.61" x2="-696.32" y2="-140.61" gradientTransform="translate(-14.75 734.03) rotate(90)" gradientUnits="userSpaceOnUse"><stop offset="0" stop-color="#093e64"/><stop offset="1" stop-color="#28ade4"/></linearGradient><linearGradient id="b" x1="-733.97" y1="-136.45" x2="-692.95" y2="-136.45" xlink:href="#a"/><linearGradient id="c" x1="62.53" y1="59.89" x2="100.17" y2="59.89" gradientTransform="matrix(1, 0, 0, 1, 0, 0)" xlink:href="#a"/><radialGradient id="d" cx="88.05" cy="65.21" r="17.35" gradientTransform="translate(-0.88 0.12) scale(0.98)" gradientUnits="userSpaceOnUse"><stop offset="0" stop-color="#28ade4"/><stop offset="1" stop-color="#093e64"/></radialGradient><linearGradient id="e" x1="-108.87" y1="885.17" x2="-71.23" y2="885.17" gradientTransform="translate(-762.76 14.17) rotate(-90)" xlink:href="#a"/><linearGradient id="f" x1="-108.87" y1="889.33" x2="-67.86" y2="889.33" gradientTransform="translate(-762.76 14.17) rotate(-90)" xlink:href="#a"/><radialGradient id="g" cx="-549.78" cy="986" r="19.2" gradientTransform="matrix(-0.73, -0.65, 0.65, -0.73, -880.18, 426.94)" gradientUnits="userSpaceOnUse"><stop offset="0" stop-color="#f39638"/><stop offset="1" stop-color="#e74a23"/></radialGradient><radialGradient id="h" cx="-545.6" cy="990.24" r="17.35" gradientTransform="matrix(-0.73, -0.65, 0.65, -0.73, -880.18, 426.94)" gradientUnits="userSpaceOnUse"><stop offset="0" stop-color="#f39638"/><stop offset="0.48" stop-color="#e74a23"/></radialGradient></defs><title>Zasób 3</title><g style="isolation:isolate"><path d="M103.54,61.52C103.54,71.76,113.77,82,124,82h0a20.57,20.57,0,0,1,20.51,20.5h0A20.57,20.57,0,0,1,124,123h0a20.57,20.57,0,0,1-20.51-20.5h0C103.54,92.28,93.29,82,83,82h0A20.57,20.57,0,0,1,62.53,61.52h0A20.57,20.57,0,0,1,83,41h.05c10.24,0,20.45-10.27,20.45-20.51h0A20.57,20.57,0,0,1,124,0h0a20.57,20.57,0,0,1,20.51,20.51h0A20.57,20.57,0,0,1,124,41h0c-10.25,0-20.49,10.24-20.51,20.49v0Z" fill="#0460a9" fill-rule="evenodd"/><path d="M165.06,41a20.57,20.57,0,0,0-20.5,20.51h0A20.57,20.57,0,0,0,165.06,82h0a20.57,20.57,0,0,0,20.51-20.51h0A20.57,20.57,0,0,0,165.06,41Z" fill="#f39638" fill-rule="evenodd"/><path d="M138.75,26.51h0a20.33,20.33,0,0,1-3.37,11.2,20.52,20.52,0,0,0,9.31-17.14h0A20.48,20.48,0,0,0,107,9.37,20.34,20.34,0,0,1,118.24,6,20.57,20.57,0,0,1,138.75,26.51Z" opacity="0.3" fill="url(#a)" style="mix-blend-mode:multiply"/><path d="M111.27,13.2a20.57,20.57,0,0,1,20.51,20.5h0a20.31,20.31,0,0,1-1,6.25,20.46,20.46,0,0,0,4.59-2.25,20.33,20.33,0,0,0,3.37-11.2h0A20.57,20.57,0,0,0,118.24,6,20.34,20.34,0,0,0,107,9.37a20.45,20.45,0,0,0-2.38,5A20.29,20.29,0,0,1,111.27,13.2Z" opacity="0.2" fill="url(#b)" style="mix-blend-mode:multiply"/><path d="M89,47h0a20.33,20.33,0,0,1,11.2,3.37A20.52,20.52,0,0,0,83,41.07h0a20.48,20.48,0,0,0-11.2,37.65,20.34,20.34,0,0,1-3.37-11.2A20.57,20.57,0,0,1,89,47Z" opacity="0.3" fill="url(#c)" style="mix-blend-mode:multiply"/><path d="M75.66,74.48A20.57,20.57,0,0,1,96.17,54h0a20.31,20.31,0,0,1,6.25,1,20.46,20.46,0,0,0-2.25-4.59A20.33,20.33,0,0,0,89,47h0a20.57,20.57,0,0,0-20.5,20.51,20.34,20.34,0,0,0,3.37,11.2,20.45,20.45,0,0,0,5,2.38A20.29,20.29,0,0,1,75.66,74.48Z" opacity="0.2" fill="url(#d)" style="mix-blend-mode:multiply"/><path d="M109.53,96.59h0a20.33,20.33,0,0,1,3.37-11.2,20.52,20.52,0,0,0-9.31,17.14h0a20.48,20.48,0,0,0,37.65,11.2A20.34,20.34,0,0,1,130,117.1,20.57,20.57,0,0,1,109.53,96.59Z" opacity="0.3" fill="url(#e)" style="mix-blend-mode:multiply"/><path d="M137,109.9a20.57,20.57,0,0,1-20.51-20.5h0a20.31,20.31,0,0,1,1-6.25,20.46,20.46,0,0,0-4.59,2.25,20.33,20.33,0,0,0-3.37,11.2h0A20.57,20.57,0,0,0,130,117.1a20.34,20.34,0,0,0,11.2-3.37,20.45,20.45,0,0,0,2.38-5A20.29,20.29,0,0,1,137,109.9Z" opacity="0.2" fill="url(#f)" style="mix-blend-mode:multiply"/><path d="M151,68.44h0a20.33,20.33,0,0,1-6.12-10,20.52,20.52,0,0,0,6.6,18.35h0a20.48,20.48,0,0,0,33.41-20.66A20.34,20.34,0,0,1,180,66.77,20.57,20.57,0,0,1,151,68.44Z" opacity="0.2" fill="url(#g)" style="mix-blend-mode:multiply"/><path d="M179.25,56.78a20.57,20.57,0,0,1-29,1.67h0a20.31,20.31,0,0,1-4-4.89,20.46,20.46,0,0,0-1.38,4.92,20.33,20.33,0,0,0,6.12,10h0a20.57,20.57,0,0,0,29-1.67,20.34,20.34,0,0,0,4.94-10.6,20.45,20.45,0,0,0-2.11-5.07A20.29,20.29,0,0,1,179.25,56.78Z" opacity="0.1" fill="url(#h)" style="mix-blend-mode:multiply"/><path d="M0,181v-30H22.26V156H6.06v6.66H21.14v5.06H6.06v8.17H22.84V181Z" fill="#0460a9"/><path d="M52.14,177.14A19.79,19.79,0,0,0,57,179.68L54.77,184a13.87,13.87,0,0,1-2.68-1.13q-.29-.14-4-2.66a16.13,16.13,0,0,1-6.53,1.29q-6.92,0-10.84-4.08t-3.92-11.45q0-7.35,3.93-11.44t10.67-4.09q6.68,0,10.59,4.09t3.91,11.44a19.76,19.76,0,0,1-1.08,6.84A14.23,14.23,0,0,1,52.14,177.14Zm-4.87-3.42A9.05,9.05,0,0,0,49,170.4a15.54,15.54,0,0,0,.58-4.46q0-5.2-2.29-7.77a7.66,7.66,0,0,0-6-2.57,7.68,7.68,0,0,0-6,2.58q-2.3,2.58-2.3,7.76t2.3,7.88a7.43,7.43,0,0,0,5.83,2.61A7.1,7.1,0,0,0,43.6,176a17.56,17.56,0,0,0-3.75-1.88l1.7-3.46A20.61,20.61,0,0,1,47.27,173.72Z" fill="#0460a9"/><path d="M87.68,181H81.08l-2.62-6.82h-12L64,181H57.55l11.69-30h6.41ZM76.52,169.07l-4.14-11.14-4.06,11.14Z" fill="#0460a9"/><path d="M90.91,181v-30h12.76a21.83,21.83,0,0,1,7,.81,6.9,6.9,0,0,1,3.49,2.88,8.66,8.66,0,0,1,1.31,4.73,8,8,0,0,1-2,5.58,9.54,9.54,0,0,1-5.94,2.78,14.14,14.14,0,0,1,3.25,2.52,34.3,34.3,0,0,1,3.45,4.87l3.67,5.86h-7.25l-4.38-6.53a42.31,42.31,0,0,0-3.2-4.41,4.65,4.65,0,0,0-1.82-1.25,10,10,0,0,0-3.05-.34H97V181ZM97,163.62h4.49a23.16,23.16,0,0,0,5.45-.37,3.26,3.26,0,0,0,1.7-1.27,3.91,3.91,0,0,0,.61-2.25,3.6,3.6,0,0,0-.81-2.45,3.71,3.71,0,0,0-2.28-1.18q-.74-.1-4.42-.1H97Z" fill="#0460a9"/><path d="M121.18,181v-30h9.73a35.28,35.28,0,0,1,7.21.45,7.87,7.87,0,0,1,4.32,2.94,9.32,9.32,0,0,1,1.74,5.85,9.8,9.8,0,0,1-1,4.65,8.22,8.22,0,0,1-2.55,3,8.78,8.78,0,0,1-3.14,1.42,34.62,34.62,0,0,1-6.29.43h-4V181ZM127.25,156v8.52h3.32a15.66,15.66,0,0,0,4.79-.47,4,4,0,0,0,1.89-1.47,4,4,0,0,0,.69-2.33,3.88,3.88,0,0,0-1-2.7,4.19,4.19,0,0,0-2.44-1.33,29.1,29.1,0,0,0-4.36-.21Z" fill="#0460a9"/><path d="M160.08,181v-30h6.06v11.82H178V150.93h6.06v30H178V167.82H166.14V181Z" fill="#0460a9"/><path d="M190.31,150.93h6.06v16.26a33.74,33.74,0,0,0,.22,5,4.87,4.87,0,0,0,1.85,3,6.46,6.46,0,0,0,4,1.12,6.11,6.11,0,0,0,3.89-1.06,4.17,4.17,0,0,0,1.58-2.59,33.73,33.73,0,0,0,.27-5.1V150.93h6.06V166.7a40.47,40.47,0,0,1-.49,7.64,8.45,8.45,0,0,1-1.81,3.77,9.15,9.15,0,0,1-3.53,2.45,15.38,15.38,0,0,1-5.78.91,16.63,16.63,0,0,1-6.52-1,9.32,9.32,0,0,1-3.51-2.58,8.27,8.27,0,0,1-1.7-3.33,36.43,36.43,0,0,1-.59-7.62Z" fill="#0460a9"/><path d="M220.66,150.93h12a34.69,34.69,0,0,1,5.31.3,7.82,7.82,0,0,1,3.13,1.24,7.7,7.7,0,0,1,2.3,2.51,6.8,6.8,0,0,1,.92,3.51,7.12,7.12,0,0,1-4.22,6.51,7.91,7.91,0,0,1,4.22,2.72,7.23,7.23,0,0,1,1.47,4.53,8.93,8.93,0,0,1-1,4,8,8,0,0,1-2.6,3.09,8.59,8.59,0,0,1-4.07,1.42q-1.52.16-7.31.2H220.66Zm6.06,5v6.94h4q3.54,0,4.4-.1a4,4,0,0,0,2.45-1.08,3.17,3.17,0,0,0,.89-2.35,3.29,3.29,0,0,0-.77-2.26,3.48,3.48,0,0,0-2.28-1.05q-.9-.1-5.18-.1Zm0,11.94v8h5.61a27.41,27.41,0,0,0,4.16-.18,3.75,3.75,0,0,0,2.2-1.2,3.69,3.69,0,0,0,.85-2.55,3.91,3.91,0,0,0-.66-2.29,3.7,3.7,0,0,0-1.89-1.37,20.6,20.6,0,0,0-5.38-.43Z" fill="#0460a9"/></g></svg>